<?xml version="1.0" standalone="no"?>
<!DOCTYPE svg PUBLIC "-//W3C//DTD SVG 20010904//EN"
 "http://www.w3.org/TR/2001/REC-SVG-20010904/DTD/svg10.dtd">
<svg version="1.0" xmlns="http://www.w3.org/2000/svg"
 width="260.000000pt" height="260.000000pt" viewBox="0 0 260.000000 260.000000"
 preserveAspectRatio="xMidYMid meet">
<metadata>
Created by potrace 1.11, written by Peter Selinger 2001-2013
</metadata>
<g transform="translate(0.000000,260.000000) scale(0.100000,-0.100000)"
fill="#000000" stroke="none">
<path d="M0 1300 l0 -1300 1300 0 1300 0 0 1300 0 1300 -1300 0 -1300 0 0
-1300z m1157 1152 c-10 -10 -17 -25 -17 -32 0 -7 7 -22 17 -32 14 -16 15 -18
0 -18 -9 0 -19 5 -22 10 -3 6 -16 10 -28 10 -18 0 -19 -2 -7 -10 12 -8 10 -10
-10 -10 -36 0 -70 11 -70 22 0 5 4 7 9 4 5 -3 11 1 15 9 3 8 1 17 -4 20 -21
13 -8 22 43 32 28 5 61 11 71 11 18 2 18 1 3 -16z m160 -13 c20 -18 25 -20 20
-7 -5 15 -1 15 38 -4 24 -12 41 -26 38 -31 -4 -6 -1 -7 7 -2 7 4 15 3 19 -2 7
-12 200 -77 207 -70 3 3 -11 10 -31 17 -20 7 -35 14 -32 16 6 6 96 -26 103
-37 3 -5 -3 -6 -12 -2 -12 4 -15 3 -10 -5 4 -7 14 -12 21 -12 28 0 95 -32 88
-43 -3 -6 -1 -7 5 -3 13 8 94 -31 132 -63 14 -11 19 -20 13 -21 -7 0 -13 -5
-13 -12 0 -9 3 -9 12 0 17 17 29 15 57 -9 21 -17 23 -22 10 -30 -10 -8 -8 -9
8 -4 32 9 186 -139 177 -170 -4 -11 -12 -23 -18 -27 -8 -6 -8 -8 1 -8 7 0 17
8 23 18 9 15 12 14 35 -13 13 -16 23 -31 21 -32 -2 -2 10 -18 25 -34 28 -30
39 -57 19 -44 -5 3 -10 -1 -10 -9 0 -9 -5 -16 -12 -16 -6 0 -8 -3 -5 -6 4 -4
14 -1 23 7 14 11 18 11 30 -6 8 -10 12 -28 8 -39 -4 -17 -3 -18 5 -6 10 13 15
8 12 -12 0 -5 3 -8 8 -8 5 0 11 -8 14 -17 2 -10 8 -27 13 -37 4 -12 4 -17 -2
-13 -6 3 -16 -4 -23 -16 -11 -18 -11 -20 0 -9 21 20 36 14 48 -19 14 -41 14
-52 -1 -44 -7 4 -6 0 3 -7 9 -8 22 -31 27 -52 9 -31 8 -37 -3 -32 -8 3 -17 1
-21 -5 -3 -6 -13 -8 -23 -4 -12 5 -13 4 -4 -6 9 -9 16 -9 25 -1 24 19 39 -3
50 -76 10 -71 6 -108 -11 -98 -5 3 -20 2 -33 -4 -19 -8 -17 -9 15 -5 l38 4 -3
-42 c-2 -31 -7 -42 -20 -42 -9 0 -20 -4 -25 -8 -4 -5 -3 -8 2 -7 39 8 47 0 40
-37 -4 -21 -8 -46 -7 -55 0 -10 -4 -18 -9 -18 -6 0 -8 3 -6 7 3 5 -1 14 -9 20
-9 9 -15 9 -19 2 -4 -6 -14 -8 -22 -5 -8 4 -11 1 -8 -5 4 -6 14 -8 22 -5 34
14 51 -72 22 -110 -5 -6 -6 -14 -2 -17 3 -4 2 -7 -4 -7 -6 0 -10 -8 -9 -17 0
-11 -5 -17 -13 -15 -11 2 -12 0 -3 -11 13 -15 6 -47 -9 -47 -5 0 -9 -9 -9 -20
0 -11 -2 -20 -4 -20 -2 0 -11 -3 -20 -6 -11 -4 -16 0 -16 12 0 12 -3 15 -8 8
-4 -6 -14 -14 -22 -17 -10 -3 -7 -6 9 -6 18 -1 22 -5 16 -19 -5 -14 -4 -15 6
-4 21 20 33 14 14 -8 -10 -11 -14 -20 -10 -20 4 0 1 -8 -8 -18 -10 -10 -14
-22 -10 -27 5 -4 2 -5 -4 -1 -7 4 -13 14 -13 22 0 9 5 12 13 8 9 -5 9 -4 0 6
-9 10 -15 10 -27 -2 -13 -14 -13 -18 0 -36 13 -20 12 -26 -18 -71 -34 -52 -48
-62 -48 -36 0 8 8 15 18 16 10 0 12 3 5 6 -10 3 -10 10 -2 24 5 11 13 17 18
15 4 -3 13 5 20 17 11 17 11 19 0 10 -10 -10 -16 -10 -28 0 -12 10 -13 9 -6
-2 12 -21 -22 -43 -46 -30 -15 7 -17 6 -13 -6 4 -8 12 -15 20 -15 17 0 17 -1
4 -35 -8 -20 -15 -26 -30 -22 -12 3 -18 1 -14 -5 4 -6 -1 -8 -14 -4 -16 5 -24
1 -32 -16 -11 -22 -10 -22 4 -4 19 23 21 8 4 -28 -9 -22 -14 -24 -26 -13 -13
9 -14 9 -8 -1 7 -12 -15 -18 -27 -6 -11 12 5 33 21 27 14 -4 15 -3 2 5 -9 7
-19 7 -26 2 -6 -6 -13 -7 -16 -4 -3 3 -9 0 -14 -7 -4 -7 -3 -10 3 -6 6 4 13 0
17 -8 3 -8 0 -14 -6 -12 -6 1 -13 -5 -15 -13 -4 -12 -3 -12 5 -1 6 9 12 10 16
3 4 -6 14 -9 24 -5 9 3 2 -4 -15 -16 -18 -11 -33 -25 -33 -31 0 -5 -9 -10 -20
-10 -11 0 -19 3 -19 8 3 20 -4 22 -31 5 -16 -9 -30 -22 -30 -27 0 -5 10 -1 21
10 16 14 23 15 26 7 3 -7 11 -13 20 -13 8 0 13 -6 10 -12 -2 -7 -18 -13 -35
-13 -16 0 -28 -3 -26 -6 6 -10 -22 -30 -29 -22 -4 3 -2 11 3 18 7 8 5 12 -5
12 -18 0 -20 -18 -4 -34 13 -13 3 -36 -12 -28 -5 4 -9 1 -9 -6 0 -6 -8 -9 -20
-6 -11 3 -20 1 -20 -4 0 -5 -7 -9 -15 -9 -18 0 -20 24 -2 38 6 5 23 12 37 15
14 2 4 5 -24 6 -33 1 -53 7 -63 19 -13 15 -13 15 -4 -5 6 -12 20 -23 32 -25
l20 -3 -21 -23 c-16 -17 -29 -21 -55 -18 -47 6 -58 14 -52 42 2 13 0 21 -4 18
-14 -8 -10 -40 6 -54 14 -12 13 -16 -6 -37 -24 -24 -56 -33 -43 -10 6 9 5 9
-7 1 -8 -7 -38 -15 -67 -19 -28 -4 -49 -11 -46 -16 3 -5 10 -6 16 -3 6 4 8 3
5 -3 -6 -10 -120 -9 -138 2 -6 4 -9 18 -6 31 2 13 0 21 -4 18 -14 -8 -10 -36
7 -56 16 -16 15 -18 0 -24 -10 -4 -28 -2 -42 5 -14 6 -34 11 -46 11 -17 0 -20
5 -16 29 2 17 0 27 -5 24 -5 -3 -7 -18 -5 -34 4 -25 1 -30 -20 -36 -34 -8 -77
20 -75 49 1 21 0 20 -10 -4 -13 -34 -62 -48 -85 -24 -14 14 -15 20 -4 39 13
22 13 22 -5 2 -20 -22 -66 -26 -85 -7 -10 10 -10 17 0 32 7 11 8 20 3 20 -16
0 -23 -40 -11 -55 10 -12 9 -15 -3 -15 -8 0 -20 7 -27 16 -21 24 -53 38 -84
36 -19 -2 -36 6 -53 24 -29 32 -27 56 7 65 22 6 23 7 4 8 -12 1 -27 -5 -33
-13 -11 -14 -12 -68 0 -61 3 3 14 -4 24 -15 10 -11 24 -20 30 -20 8 0 10 -10
7 -25 -2 -14 -7 -25 -11 -25 -16 1 -81 72 -76 83 4 7 0 4 -8 -5 -21 -27 -42
-22 -71 16 -29 38 -20 57 16 32 12 -9 34 -15 48 -15 l25 2 -24 4 c-29 6 -53
27 -43 38 4 5 2 5 -5 1 -7 -4 -16 2 -22 13 -6 10 -26 22 -46 25 -28 6 -39 15
-52 41 -9 19 -25 37 -35 41 -26 8 -18 37 12 45 23 6 23 7 3 8 -12 1 -28 -8
-36 -19 -13 -19 -16 -20 -31 -5 -9 9 -16 12 -16 5 0 -6 11 -15 25 -22 13 -6
22 -15 19 -19 -5 -8 9 -13 28 -10 13 2 30 -41 20 -51 -12 -12 -64 11 -55 25 4
6 1 7 -7 2 -18 -11 -32 16 -17 34 8 10 8 12 1 8 -16 -9 -48 29 -38 45 5 9 2 8
-11 -2 -17 -14 -18 -14 -7 7 15 27 15 45 1 20 -5 -9 -16 -17 -23 -17 -14 0
-48 97 -36 105 4 3 10 -4 13 -15 3 -11 19 -28 36 -37 17 -10 34 -27 38 -38 6
-19 7 -18 17 5 6 14 15 28 21 32 6 5 5 8 -3 8 -7 0 -17 -10 -22 -23 -5 -12 -9
-17 -9 -10 -1 6 -17 20 -36 32 -22 13 -35 28 -35 41 0 24 -8 25 -32 3 -25 -23
-48 -3 -27 24 13 16 12 17 -2 5 -14 -11 -17 -9 -22 15 -3 16 -4 29 -3 30 1 1
15 -4 30 -13 16 -8 31 -13 33 -10 2 2 -9 10 -26 17 -32 14 -32 34 0 24 14 -5
19 -2 18 12 0 10 -3 13 -5 6 -6 -13 -34 -6 -47 11 -6 7 -7 4 -3 -6 8 -26 -9
-30 -36 -8 -14 11 -28 17 -31 13 -4 -3 -9 2 -12 11 -3 9 -8 24 -12 34 -4 9 -8
22 -8 27 -4 25 -32 75 -39 68 -4 -4 -4 1 0 11 5 14 4 17 -4 12 -7 -4 -12 -2
-12 4 0 6 7 13 16 17 15 6 15 7 -1 19 -9 7 -14 18 -10 24 5 8 11 8 21 -1 12
-10 13 -9 8 5 -3 9 -1 16 5 16 6 0 11 -6 11 -14 0 -8 4 -17 8 -20 5 -3 6 8 4
24 -4 26 -6 28 -29 19 -36 -13 -38 -11 -17 13 10 12 13 18 5 13 -11 -6 -13 -4
-8 7 6 18 -22 20 -36 3 -5 -6 -6 -2 -3 8 3 10 6 23 6 28 0 14 28 11 33 -3 3
-8 6 -5 6 5 1 11 6 16 14 12 6 -4 3 1 -8 10 -12 9 -21 11 -23 5 -7 -21 -24 -9
-20 15 3 14 1 25 -6 25 -6 1 0 7 14 16 24 14 24 15 2 9 -19 -6 -23 -3 -20 12
2 10 8 21 13 25 6 5 5 8 -2 8 -20 0 -15 20 5 21 16 1 16 2 -1 6 -9 2 -17 11
-17 19 0 8 4 13 9 9 5 -3 12 -1 16 5 4 6 11 8 16 5 5 -4 9 -1 9 6 0 6 -8 9
-18 7 -16 -5 -19 1 -19 33 0 31 4 39 19 39 20 0 24 15 6 26 -6 4 -8 3 -5 -3 3
-5 0 -10 -7 -10 -10 0 -12 8 -6 29 5 16 5 30 -1 33 -5 4 -9 12 -9 18 0 8 3 8
9 -1 6 -10 10 -8 16 10 4 12 7 26 6 30 -2 19 20 58 30 52 6 -3 3 6 -7 22 -13
19 -14 25 -5 20 11 -7 13 -4 9 12 -4 12 -2 20 2 17 5 -3 16 15 25 40 10 24 22
42 27 39 6 -4 5 3 -1 15 -7 12 -8 20 -2 19 5 -2 31 31 58 72 146 221 365 389
612 471 71 23 94 21 73 -4 -9 -10 -8 -14 3 -14 10 0 15 11 15 34 0 31 22 55
36 40 8 -7 -34 -82 -60 -106 -20 -19 -28 -21 -46 -11 -18 9 -25 8 -41 -6 -22
-20 -26 -42 -4 -24 8 7 15 9 15 4 0 -5 4 -3 9 5 6 9 11 10 15 2 6 -10 -6 -15
-26 -12 -5 0 -8 -3 -8 -8 0 -10 -49 -11 -55 -1 -3 4 2 13 10 20 8 7 15 17 15
22 0 6 -9 0 -19 -13 -14 -17 -17 -29 -10 -41 5 -10 6 -18 1 -18 -5 0 -15 11
-22 25 -9 17 -16 21 -21 14 -4 -7 -1 -19 7 -26 16 -16 19 -37 5 -29 -5 4 -11
0 -14 -6 -2 -7 -8 -10 -12 -6 -4 4 -2 15 6 24 13 16 12 16 -8 3 -13 -8 -23
-19 -23 -26 0 -7 -8 -13 -17 -13 -15 0 -16 -2 -3 -10 8 -5 10 -10 4 -10 -5 0
-15 5 -22 12 -9 9 -16 8 -30 -5 -10 -9 -21 -14 -25 -11 -3 3 -3 -4 0 -15 5
-21 18 -20 18 1 0 6 8 12 18 14 9 1 17 -1 17 -5 0 -10 -41 -43 -47 -38 -7 8
-67 -14 -75 -27 -4 -6 1 -19 10 -29 13 -15 14 -18 2 -15 -8 2 -14 -3 -12 -9 1
-7 -3 -13 -9 -13 -6 0 -8 9 -4 23 7 20 6 21 -7 4 -7 -10 -25 -23 -38 -30 -27
-14 -34 -48 -10 -54 13 -4 13 -3 0 6 -13 10 -13 11 0 11 13 0 13 1 0 10 -12 7
-10 11 10 18 32 12 44 5 25 -14 -8 -9 -15 -18 -15 -22 0 -4 -4 -13 -9 -21 -7
-11 -14 -10 -37 5 -22 14 -26 15 -17 3 16 -20 5 -33 -14 -17 -10 8 -12 8 -8
-4 3 -8 -1 -21 -10 -28 -19 -16 -19 -26 -1 -33 10 -4 14 0 11 13 -4 23 7 32
28 24 13 -5 13 -10 -5 -40 -11 -19 -24 -31 -29 -28 -5 3 -6 -3 -2 -12 4 -12 3
-15 -5 -10 -7 4 -10 2 -6 -7 2 -7 -4 -34 -15 -60 -16 -37 -24 -45 -38 -41 -13
4 -14 3 -5 -3 14 -10 9 -62 -6 -72 -5 -3 -8 -14 -6 -24 1 -9 -3 -23 -10 -30
-7 -7 -11 -18 -8 -26 2 -7 -2 -17 -9 -22 -8 -5 -9 -9 -3 -9 7 0 9 -11 6 -25
-2 -14 -9 -25 -14 -25 -5 0 -6 -5 -2 -12 5 -8 0 -9 -14 -6 -12 4 -20 2 -16 -3
3 -5 11 -9 19 -9 10 0 13 -11 12 -35 -2 -34 -6 -38 -37 -37 -8 1 -3 -4 11 -10
24 -10 26 -16 28 -76 1 -35 3 -69 4 -76 1 -6 -7 -10 -18 -8 -16 2 -17 1 -5 -7
8 -5 18 -7 22 -5 4 3 8 -1 9 -8 0 -7 2 -24 5 -37 2 -14 -1 -29 -8 -34 -10 -6
-8 -7 4 -4 12 4 18 -3 24 -31 5 -20 8 -43 7 -49 0 -7 2 -13 6 -13 12 0 33 -69
25 -81 -4 -8 -3 -9 4 -5 7 4 16 -3 21 -17 6 -14 15 -28 21 -32 6 -4 8 -16 5
-28 -5 -17 -4 -19 4 -7 6 8 11 10 11 4 0 -6 9 -21 20 -34 12 -14 18 -32 15
-44 -3 -12 -2 -15 1 -7 8 18 115 -95 108 -114 -3 -7 -1 -16 5 -20 7 -3 8 0 5
9 -8 22 1 20 36 -6 17 -12 30 -30 30 -39 0 -10 4 -21 10 -24 6 -3 7 1 4 9 -9
23 1 20 57 -18 27 -19 58 -38 69 -41 11 -4 20 -11 20 -16 0 -6 3 -8 8 -5 12 7
72 -22 72 -35 0 -7 -7 -20 -16 -30 -16 -17 -15 -18 9 -6 15 7 23 17 19 25 -4
11 2 13 29 7 41 -9 51 -14 45 -23 -2 -4 13 -6 34 -4 21 2 41 -1 44 -7 4 -6 25
-11 46 -11 l38 0 -4 -39 c-3 -22 -1 -42 4 -45 5 -3 7 6 4 19 -3 19 0 25 14 25
17 0 17 1 -1 13 -13 10 -15 16 -6 21 19 12 79 -3 91 -22 11 -16 11 -16 6 1 -5
14 1 17 40 17 42 0 44 -1 38 -24 -3 -13 -1 -27 5 -30 7 -5 8 -1 5 9 -4 8 -1
22 5 29 9 11 9 15 -1 19 -7 3 8 6 34 6 40 1 46 -1 41 -18 -3 -10 0 -22 5 -25
6 -3 8 2 6 11 -6 26 8 42 44 49 25 5 32 3 32 -9 0 -9 4 -18 9 -21 5 -4 7 3 4
14 -4 15 3 23 28 34 19 8 54 23 79 34 37 16 46 17 48 6 2 -8 7 -14 12 -14 4 0
6 8 4 18 -7 24 47 57 65 39 10 -9 11 -9 6 3 -3 10 6 24 27 40 21 15 33 19 36
12 2 -7 8 -12 14 -12 7 0 7 5 -1 13 -8 10 -4 20 18 41 16 15 31 23 35 18 3 -5
17 -12 31 -14 13 -3 22 -1 19 3 -3 5 -14 9 -25 9 -25 0 -24 14 2 50 19 25 24
27 36 14 8 -8 19 -14 26 -14 6 0 2 6 -9 14 -19 14 -19 15 0 50 10 19 25 37 32
40 8 3 14 12 14 21 0 8 4 15 10 15 5 0 7 7 4 15 -8 20 5 19 27 -1 17 -16 18
-15 6 9 -6 14 -16 23 -22 20 -5 -2 -1 3 9 11 11 9 17 16 14 16 -4 0 0 20 9 45
8 25 19 45 25 45 5 0 6 5 3 10 -3 6 1 10 9 10 9 0 16 4 16 10 0 5 -7 7 -15 4
-11 -5 -13 -2 -9 10 3 9 11 13 18 9 7 -5 7 -2 -1 8 -7 9 -8 20 -3 29 7 12 12
12 34 0 14 -7 29 -10 33 -7 3 4 -1 7 -10 7 -9 0 -17 5 -17 10 0 6 -7 10 -15
10 -10 0 -15 10 -15 30 0 27 2 30 25 24 36 -9 75 3 75 23 0 15 -2 15 -14 -2
-14 -20 -53 -14 -40 6 4 8 3 9 -5 5 -6 -4 -8 -13 -4 -19 4 -7 -1 -6 -10 2 -18
14 -19 41 -2 53 6 5 5 8 -2 8 -7 0 -13 4 -13 8 0 10 36 9 46 -1 4 -4 14 -7 23
-6 10 0 6 5 -9 11 -14 6 -30 10 -36 9 -6 -1 -11 10 -11 24 0 13 3 22 8 19 5
-3 9 -1 9 5 0 5 -6 12 -12 14 -7 3 -3 6 10 6 13 1 21 -3 18 -8 -4 -5 3 -7 14
-4 11 3 22 9 25 13 3 5 -4 6 -15 3 -11 -3 -20 0 -20 6 0 5 -6 8 -14 5 -8 -3
-17 -1 -20 5 -7 11 17 38 49 57 10 6 21 17 23 25 2 8 -3 5 -11 -6 -17 -22 -27
-18 -30 14 -1 11 -7 23 -14 25 -16 7 -17 -6 -2 -21 6 -6 8 -16 4 -22 -8 -14
-37 12 -33 31 4 19 30 37 46 30 8 -3 17 1 22 7 6 10 12 10 28 0 18 -11 24 -11
34 -1 11 11 10 12 -5 6 -9 -3 -24 -1 -32 6 -12 10 -18 10 -30 0 -24 -20 -37 0
-26 38 6 18 6 30 1 27 -5 -3 -16 5 -24 17 -14 20 -14 24 0 46 9 14 11 21 5 18
-6 -4 -11 -1 -11 6 0 7 -10 19 -22 27 -21 13 -21 14 -2 24 10 6 30 13 44 15
13 2 27 6 30 9 3 3 -7 3 -22 1 -21 -4 -28 -1 -29 11 0 11 -3 8 -9 -6 -5 -13
-14 -23 -20 -23 -5 0 -10 10 -10 23 0 12 0 33 -1 47 0 17 -2 21 -8 12 -13 -21
-40 12 -36 44 2 20 -5 30 -29 45 -17 10 -25 19 -18 19 7 0 10 5 7 10 -4 6 -11
8 -16 5 -5 -4 -9 3 -9 13 0 11 -7 25 -15 32 -10 8 -14 24 -11 42 2 16 0 26 -5
22 -5 -3 -7 -10 -4 -15 4 -5 1 -9 -5 -9 -6 0 -8 -5 -4 -11 4 -7 1 -10 -7 -7
-8 2 -21 20 -30 39 -9 19 -21 34 -25 34 -19 2 -53 17 -51 23 3 11 -26 48 -43
54 -8 3 0 6 18 5 27 0 36 -6 45 -26 6 -14 13 -28 15 -31 4 -6 22 22 22 35 0 6
-4 4 -9 -3 -6 -10 -12 -7 -24 11 -11 16 -28 26 -51 29 -19 2 -34 0 -33 -5 4
-21 -24 -16 -44 7 -14 16 -33 26 -50 26 -34 0 -86 49 -66 62 7 5 2 8 -14 8
-32 0 -42 9 -27 27 8 11 7 12 -6 7 -17 -7 -22 -34 -6 -34 6 0 10 -4 10 -10 0
-15 -30 -12 -31 3 0 10 -2 10 -6 0 -2 -7 -9 -13 -14 -13 -6 0 -7 6 -4 13 4 6
0 4 -8 -6 -10 -12 -17 -15 -22 -7 -4 6 1 18 11 26 18 14 18 15 -2 5 -12 -6
-24 -7 -28 -3 -4 3 -4 -2 0 -12 5 -14 3 -17 -7 -14 -8 3 -13 12 -11 19 1 8 -4
5 -13 -5 -11 -14 -15 -16 -15 -5 0 9 -3 10 -8 3 -6 -11 -91 -38 -152 -50 -25
-4 -25 -4 -2 7 29 16 28 27 -2 25 -13 0 -23 -3 -21 -6 8 -14 -145 0 -181 16
-38 16 -38 17 -14 24 14 5 72 9 130 11 58 1 93 4 77 6 -23 4 -26 8 -21 29 4
16 2 24 -6 24 -10 0 -10 3 0 15 7 8 10 22 6 30 -3 8 -2 15 3 15 5 0 12 -12 16
-27 l8 -28 7 25 7 25 8 -30 9 -30 7 25 c6 23 7 22 9 -10 l2 -35 10 34 c6 24
12 31 18 22 5 -8 10 -9 14 -3 9 15 -50 60 -90 68 -19 3 -53 3 -76 0 -38 -6
-40 -5 -27 10 13 16 12 16 -9 5 -18 -10 -27 -10 -38 0 -34 28 -2 75 36 51 14
-8 19 -8 24 3 2 7 0 16 -7 19 -7 3 5 4 26 2 22 -2 48 -13 64 -27z m248 -69 c8
-13 -5 -13 -25 0 -13 8 -13 10 2 10 9 0 20 -4 23 -10z m-365 -45 c0 -8 15 -17
35 -21 34 -6 44 -17 26 -29 -5 -3 -12 -1 -16 5 -4 7 -12 7 -25 0 -31 -17 -37
-12 -34 27 2 25 0 32 -6 23 -5 -8 -7 -23 -4 -32 3 -10 -2 -21 -13 -26 -15 -9
-18 -6 -17 19 2 45 3 47 22 52 22 5 32 -1 32 -18z m-65 6 c3 -5 0 -13 -6 -17
-8 -5 -8 -9 1 -14 18 -11 4 -44 -15 -36 -18 7 -20 -5 -3 -22 6 -6 9 -14 5 -18
-10 -10 -27 6 -27 26 0 10 -5 22 -10 25 -6 4 -7 11 -4 17 4 6 10 5 16 -3 7
-10 8 -4 4 19 -5 27 -2 32 14 32 10 0 21 -4 25 -9z m-195 -16 c-46 -18 -64
-17 -25 0 17 8 37 14 45 14 8 0 -1 -7 -20 -14z m315 5 c3 -5 -1 -10 -10 -10
-9 0 -13 5 -10 10 3 6 8 10 10 10 2 0 7 -4 10 -10z m-175 -9 c0 -6 -5 -13 -11
-17 -8 -4 -8 -9 0 -17 14 -14 14 -30 1 -22 -6 4 -17 1 -25 -5 -11 -9 -15 -9
-15 -1 0 6 4 11 9 11 5 0 12 14 16 30 6 27 25 43 25 21z m-210 -21 c-8 -5 -19
-10 -25 -10 -5 0 -3 5 5 10 8 5 20 10 25 10 6 0 3 -5 -5 -10z m-60 -24 c0 -2
-7 -7 -16 -10 -8 -3 -12 -2 -9 4 6 10 25 14 25 6z m439 -20 c-11 -9 -69 -14
-69 -6 0 5 15 10 33 12 32 3 44 1 36 -6z m-82 -12 c-3 -3 -12 -4 -19 -1 -8 3
-5 6 6 6 11 1 17 -2 13 -5z m-97 -24 c0 -5 -7 -10 -15 -10 -25 0 -29 -1 -42
-12 -7 -6 -13 -7 -13 -3 0 4 -7 2 -15 -5 -8 -7 -15 -9 -15 -4 0 5 -4 5 -8 -1
-4 -5 -29 -21 -57 -35 -27 -14 -59 -33 -69 -42 -11 -10 -23 -18 -27 -18 -5 0
-19 -11 -33 -25 -14 -14 -27 -25 -30 -25 -9 0 -94 -90 -100 -106 -3 -8 -11
-12 -17 -8 -8 4 -9 3 -5 -5 4 -6 1 -14 -7 -17 -8 -3 -17 -15 -20 -26 -3 -11
-10 -17 -16 -13 -6 3 -9 0 -5 -8 3 -8 -2 -20 -11 -27 -8 -7 -15 -19 -15 -27 0
-10 -6 -13 -16 -9 -9 3 -12 2 -9 -5 8 -12 -42 -119 -55 -119 -5 0 -7 -7 -3
-16 4 -10 20 11 50 67 60 113 102 167 180 234 122 105 220 158 360 196 47 13
85 18 101 14 23 -6 13 -11 -54 -25 -318 -71 -557 -306 -640 -630 -27 -107 -25
-295 4 -405 59 -220 206 -410 404 -523 136 -78 335 -119 492 -102 352 40 630
279 727 625 31 107 33 295 5 405 -22 89 -81 222 -131 294 -28 40 -30 44 -7 19
16 -18 47 -66 70 -105 129 -228 145 -498 44 -745 -12 -29 -19 -53 -16 -53 3 0
10 14 16 31 6 17 20 34 32 39 16 7 17 9 4 9 -14 1 -15 5 -5 31 6 17 15 30 20
30 4 0 5 5 2 10 -10 17 5 50 23 51 14 1 14 2 -1 6 -11 3 -16 10 -13 20 3 8 6
21 6 29 0 8 8 15 18 15 14 1 14 2 1 6 -21 5 -13 53 10 54 14 1 13 2 -1 6 -11
3 -18 14 -18 29 0 16 6 24 18 25 15 1 15 2 0 6 -12 3 -17 15 -16 46 0 23 5 45
12 49 7 5 5 8 -6 8 -12 0 -18 8 -17 23 0 29 -8 73 -15 86 -4 5 2 15 11 21 17
10 16 10 -2 8 -16 -2 -20 3 -20 25 1 15 -3 27 -7 27 -11 0 -39 70 -32 81 3 5
1 9 -4 9 -14 0 -74 101 -68 116 3 8 0 11 -8 8 -15 -6 -50 42 -41 56 3 6 -1 7
-9 4 -9 -3 -16 -1 -16 5 0 5 -9 19 -21 30 -13 11 -18 24 -14 32 5 8 4 10 -4 5
-14 -9 -43 12 -35 25 3 5 -2 6 -10 3 -9 -4 -18 1 -22 10 -3 9 -11 16 -16 16
-6 0 -20 10 -32 23 -12 12 -29 23 -37 25 -7 2 -21 11 -29 21 -9 10 -21 16 -28
13 -6 -2 -12 1 -12 7 0 6 -3 10 -7 10 -13 -3 -73 22 -73 30 0 4 -19 8 -42 10
-23 1 -46 7 -50 14 -6 9 -8 9 -8 0 0 -7 -4 -13 -10 -13 -5 0 -10 7 -10 16 0
13 7 16 38 12 47 -7 187 -65 209 -87 9 -9 17 -14 19 -11 5 13 118 -73 190
-144 184 -184 267 -388 267 -651 0 -255 -83 -472 -247 -643 -89 -94 -224 -180
-333 -212 -23 -7 -41 -16 -39 -19 2 -3 -8 -6 -22 -7 -15 0 -71 -7 -124 -13
-271 -36 -575 65 -781 259 -54 51 -60 59 -48 74 13 15 15 15 33 -1 10 -9 16
-23 13 -30 -3 -8 0 -11 6 -8 15 10 51 -26 44 -44 -5 -13 -4 -13 6 -4 10 10 16
9 31 -4 15 -13 16 -19 5 -32 -10 -14 -10 -14 5 -3 13 11 20 11 37 0 12 -7 20
-17 17 -23 -2 -5 7 -10 20 -10 13 0 24 1 24 1 0 1 -19 14 -42 29 -263 173
-412 496 -377 814 6 51 19 121 29 154 11 34 17 63 14 66 -3 3 -7 -5 -11 -17
-3 -12 -9 -22 -13 -22 -5 0 -6 -9 -3 -20 3 -11 1 -20 -5 -20 -6 0 -8 -9 -5
-20 3 -11 1 -20 -4 -20 -6 0 -8 -11 -5 -25 2 -14 0 -25 -4 -25 -5 0 -9 -19
-10 -43 0 -23 -3 -66 -5 -95 -3 -29 -2 -55 3 -58 13 -8 9 -44 -4 -44 -9 0 -10
-2 -2 -8 18 -12 27 -52 12 -52 -10 0 -10 -2 -1 -8 6 -4 14 -19 17 -32 2 -14
11 -44 20 -67 8 -24 11 -43 6 -43 -6 0 -1 -9 10 -20 12 -12 18 -25 15 -30 -4
-6 -2 -10 4 -10 10 0 27 -38 23 -53 -1 -4 2 -7 7 -7 5 0 13 -10 17 -22 3 -12
17 -33 30 -47 18 -19 21 -28 12 -38 -8 -10 -7 -12 4 -8 8 3 21 -1 28 -10 11
-13 11 -19 -2 -32 -15 -14 -20 -10 -63 47 -207 282 -219 676 -29 1005 87 150
180 251 312 339 70 46 105 63 154 75 4 1 20 8 35 16 32 17 63 19 63 5z m390
-60 c0 -5 -7 -10 -15 -10 -8 0 -15 5 -15 10 0 6 7 10 15 10 8 0 15 -4 15 -10z
m221 -7 c13 -15 12 -15 -8 -4 -24 12 -29 21 -14 21 5 0 15 -7 22 -17z m-82
-37 c81 -33 172 -97 256 -180 59 -59 61 -62 11 -15 -103 93 -217 162 -336 200
-49 16 -51 18 -22 18 18 1 59 -10 91 -23z m-182 -6 c154 -35 281 -99 395 -199
76 -68 187 -228 173 -251 -3 -6 -2 -10 3 -10 10 0 38 -61 46 -102 3 -13 8 -33
12 -45 5 -18 1 -25 -16 -31 -20 -7 -21 -10 -7 -15 10 -4 17 -2 17 3 0 6 5 10
11 10 6 0 9 -9 6 -20 -3 -11 -1 -23 4 -26 10 -6 12 -141 2 -213 -6 -43 -6 -43
-40 -38 -43 7 -55 -15 -25 -45 l20 -20 16 28 c19 37 20 22 1 -41 -49 -163
-146 -304 -285 -417 -33 -27 -161 -97 -190 -104 -8 -2 -42 -13 -75 -24 -33
-11 -69 -20 -80 -19 -11 1 -27 -1 -35 -4 -35 -13 -70 -17 -70 -7 0 6 -9 6 -26
-1 -15 -5 -34 -7 -43 -5 -9 3 -41 8 -71 11 -30 4 -59 11 -65 16 -7 7 -7 9 0 7
6 -2 11 2 13 7 2 6 -4 11 -12 13 -10 2 -16 -3 -16 -13 0 -12 -5 -15 -16 -11
-9 3 -21 6 -27 7 -7 0 -2 4 10 9 19 8 21 13 14 33 -7 17 -6 28 2 36 9 9 8 11
-5 6 -10 -4 -23 -22 -29 -40 -11 -30 -14 -32 -42 -24 -17 5 -35 14 -41 20 -7
6 -1 6 16 -2 32 -14 58 0 58 31 0 17 -3 17 -51 -1 l-51 -20 -64 38 c-35 20
-61 39 -59 41 2 3 11 -1 19 -7 24 -20 36 -5 25 31 -14 50 -27 57 -41 20 -15
-38 -20 -39 -50 -9 -13 12 -16 16 -7 9 15 -11 20 -10 38 9 28 30 14 41 -32 27
-36 -11 -39 -10 -75 25 -21 20 -46 51 -55 69 -10 18 -12 26 -5 17 7 -9 17 -18
23 -20 5 -2 9 -7 8 -11 -2 -5 0 -7 5 -6 4 0 27 -8 52 -20 25 -12 58 -22 74
-22 l30 0 -30 31 c-38 40 -143 94 -156 81 -12 -12 -40 -4 -32 9 3 5 0 9 -7 9
-7 0 -4 6 7 14 16 12 19 27 19 106 0 65 -4 93 -13 99 -11 7 -11 9 2 14 11 5
16 0 16 -14 0 -13 4 -18 13 -13 6 4 8 3 4 -1 -9 -11 99 -64 131 -65 69 -1 -43
88 -131 104 -36 6 -67 -23 -68 -66 -4 -101 -4 -128 2 -128 3 0 6 -7 6 -15 0
-30 -16 1 -52 100 -20 54 -34 107 -32 117 3 9 1 18 -3 20 -5 2 -12 40 -15 86
-6 67 -5 82 7 82 19 0 82 54 77 66 -8 20 -67 -4 -72 -29 -3 -17 -5 -15 -5 8
-2 63 49 224 100 314 108 192 289 326 520 386 116 30 210 31 325 5z m349 0 c5
1 10 -3 12 -9 3 -8 -4 -8 -22 0 -14 7 -23 16 -19 22 3 5 8 4 13 -3 4 -6 11
-11 16 -10z m74 -50 c0 -5 -2 -10 -4 -10 -3 0 -8 5 -11 10 -3 6 -1 10 4 10 6
0 11 -4 11 -10z m30 0 c0 -5 0 -13 -1 -16 0 -3 8 -13 18 -21 16 -14 15 -14 -7
0 -26 15 -40 47 -21 47 6 0 11 -4 11 -10z m-1200 -21 c0 -6 -4 -8 -9 -4 -5 3
-12 1 -16 -5 -4 -6 -11 -7 -17 -4 -7 5 -5 12 7 20 19 14 35 10 35 -7z m1290
-49 c0 -19 2 -25 12 -37 6 -7 7 -13 2 -14 -10 0 36 -22 51 -23 6 -1 9 -12 8
-24 -2 -16 1 -21 9 -16 7 5 9 2 6 -7 -6 -15 9 -32 32 -37 21 -5 35 -20 26 -29
-4 -5 -14 1 -23 12 -15 19 -15 19 -9 -5 6 -23 6 -24 -5 -5 -7 11 -23 31 -35
44 -13 14 -21 28 -18 33 3 4 0 8 -6 8 -6 0 -8 5 -5 10 3 6 -5 14 -19 20 -14 5
-26 14 -26 20 0 6 -12 22 -26 35 l-27 25 27 0 c14 0 26 -4 26 -10z m-1420
-100 c0 -5 -7 -10 -16 -10 -8 0 -12 5 -9 10 3 6 10 10 16 10 5 0 9 -4 9 -10z
m1567 -112 c0 -7 4 -21 8 -30 4 -11 3 -18 -5 -18 -6 0 -9 4 -6 9 3 5 -1 14 -9
21 -8 7 -12 16 -9 21 8 13 21 11 21 -3z m-1859 -53 c-6 -14 -13 -23 -15 -21
-5 5 15 46 22 46 3 0 -1 -11 -7 -25z m1909 -29 c-4 -27 1 -40 18 -56 18 -17
23 -32 22 -66 0 -32 5 -49 19 -60 12 -10 15 -17 8 -20 -7 -3 -10 -13 -7 -23 3
-10 -1 -22 -8 -27 -9 -5 -11 -2 -6 9 3 10 2 17 -3 17 -5 0 -9 10 -9 23 0 12
-1 29 -4 37 -2 8 -10 36 -17 63 -7 26 -17 47 -23 47 -6 0 -8 3 -4 6 3 4 -1 20
-9 36 -16 31 -12 48 12 48 12 0 15 -8 11 -34z m77 -329 c4 4 4 0 0 -10 -5 -15
-24 -25 -24 -13 0 2 -3 13 -7 23 -6 15 -4 16 9 6 8 -7 18 -10 22 -6z m-2087
-34 c-3 -10 -5 -4 -5 12 0 17 2 24 5 18 2 -7 2 -21 0 -30z m155 -580 c8 -10
15 -25 15 -33 1 -8 4 -24 9 -34 5 -14 4 -17 -4 -12 -7 4 -12 14 -12 23 0 9 -6
13 -14 10 -8 -3 -17 1 -20 9 -3 9 -1 12 4 9 6 -3 10 -1 10 5 0 6 5 8 12 4 6
-4 8 -3 4 4 -3 6 -15 9 -26 7 -20 -4 -26 5 -13 18 10 11 19 8 35 -10z m52
-115 c-3 -5 2 -8 12 -6 11 2 19 -3 19 -11 0 -26 -20 -21 -38 9 -15 25 -16 29
-3 24 9 -3 13 -10 10 -16z m51 -65 c17 -61 17 -63 -11 -31 -10 12 -13 18 -5
13 9 -5 12 -3 9 6 -3 8 -10 13 -16 12 -6 -2 -9 4 -6 12 9 23 21 18 29 -12z
m1795 -8 c-7 -8 -20 -15 -29 -15 -12 0 -10 5 9 20 28 21 39 18 20 -5z m-36
-46 c-19 -21 -50 -27 -37 -6 4 6 8 15 9 20 1 4 2 9 3 11 0 2 10 2 21 -1 20 -5
20 -7 4 -24z m-1692 -9 c17 -16 19 -22 8 -35 -7 -8 -10 -16 -6 -16 34 -7 76
-28 76 -39 0 -15 -16 -12 -30 5 -13 16 -35 10 -24 -6 3 -5 9 -7 13 -5 4 3 21
-8 36 -24 29 -30 58 -43 35 -15 -7 8 -8 15 -4 15 5 0 15 -9 22 -20 7 -11 23
-20 37 -20 16 0 25 -6 25 -15 0 -20 -6 -19 -41 6 -16 11 -29 18 -29 15 0 -3
20 -19 44 -35 38 -27 43 -28 39 -11 -7 26 13 26 27 1 13 -26 13 -40 -1 -21 -9
13 -10 13 -6 0 2 -8 11 -14 20 -14 9 1 15 -3 14 -8 -1 -6 4 -13 11 -15 8 -3
10 1 6 11 -5 14 -2 15 20 6 14 -5 26 -6 26 -2 0 4 11 -5 24 -20 14 -14 31 -28
38 -31 10 -4 10 -7 -1 -18 -12 -12 -13 -12 -6 0 6 11 4 13 -9 8 -10 -4 -15 -3
-11 3 4 6 -7 15 -24 21 -17 6 -31 15 -31 21 0 5 -5 6 -11 2 -8 -4 1 -14 22
-25 19 -10 30 -18 26 -19 -18 0 -171 85 -231 129 -76 55 -170 138 -139 122 12
-6 25 -16 28 -21 3 -6 11 -10 17 -10 6 0 3 9 -8 21 -10 12 -18 24 -16 28 1 3
-5 14 -13 24 -28 33 -7 39 27 7z m1625 -58 c-29 -28 -39 -34 -49 -24 -15 15 0
32 31 35 12 1 20 6 17 12 -2 6 6 12 17 12 18 2 15 -3 -16 -35z m-1527 -52
c-18 -11 -22 -7 -14 14 5 13 10 14 18 6 8 -8 7 -13 -4 -20z m47 23 c-3 -5 8
-8 24 -9 39 -1 63 -22 48 -40 -17 -21 -47 -17 -75 11 -24 24 -25 45 -3 45 6 0
8 -3 6 -7z m1424 -16 c-13 -13 -26 -3 -16 12 3 6 11 8 17 5 6 -4 6 -10 -1 -17z
m-43 -42 c-20 -14 -42 -25 -47 -25 -6 0 -11 -5 -11 -10 0 -15 -61 -50 -90 -51
-16 0 -19 -3 -10 -6 9 -4 -19 -22 -75 -49 -49 -23 -92 -41 -94 -39 -2 2 0 12
3 22 6 15 8 15 17 3 8 -12 9 -11 7 5 -2 12 4 21 16 23 11 2 16 0 12 -7 -4 -6
0 -11 9 -11 9 0 13 5 10 10 -5 8 7 12 31 9 3 0 12 8 21 18 8 10 11 12 7 4 -4
-9 -3 -12 4 -7 6 4 9 13 6 20 -3 9 9 17 40 25 25 6 48 16 51 21 4 6 11 7 17 4
7 -5 9 -1 5 9 -8 22 16 40 33 24 10 -10 12 -9 7 5 -4 12 1 18 16 21 48 9 50 6
15 -18z m-198 -75 c-19 -35 -80 -39 -80 -5 0 9 14 15 38 18 20 2 41 4 45 5 4
1 3 -7 -3 -18z m-106 -43 c-13 -5 -24 -12 -24 -17 0 -4 -22 -11 -50 -15 -27
-4 -61 -15 -74 -26 -26 -20 -53 -24 -75 -10 -9 6 -21 5 -32 -2 -28 -18 -37 2
-10 24 32 26 71 25 71 -1 0 -11 7 -20 15 -20 8 0 12 6 10 13 -5 13 53 57 76
57 10 -1 9 -4 -5 -15 -18 -13 -18 -14 3 -12 11 1 21 7 21 14 0 7 9 13 21 13
13 0 18 -4 14 -12 -4 -7 6 2 21 21 25 30 28 32 35 15 5 -14 0 -21 -17 -27z
m-742 6 c21 -9 25 -17 21 -35 -5 -21 -4 -21 8 -7 30 35 84 32 123 -6 12 -12
20 -13 35 -5 25 13 68 13 76 0 8 -13 61 -13 84 0 33 17 110 -13 111 -44 0 -15
-84 2 -96 19 -11 15 -13 15 -23 -3 -13 -24 -50 -35 -57 -17 -3 8 -13 11 -22 8
-11 -5 -14 -2 -9 9 3 10 0 19 -9 22 -8 3 -14 -1 -14 -9 0 -23 -65 -30 -95 -11
-13 9 -43 16 -66 16 -26 0 -50 7 -66 20 -14 11 -36 20 -49 20 -14 0 -24 6 -24
15 0 16 32 37 40 27 3 -4 17 -13 32 -19z m-46 -45 c-7 11 -4 12 11 4 25 -14
49 -42 35 -42 -23 0 -82 31 -77 41 5 6 12 5 23 -3 13 -11 14 -11 8 0z m684
-30 c0 -9 2 -10 8 -2 6 11 62 17 62 8 0 -7 -53 -25 -100 -34 l-45 -8 30 24
c34 27 45 30 45 12z m-519 -20 c4 -7 5 -15 2 -18 -3 -3 -8 1 -11 9 -3 9 -7 10
-11 3 -8 -13 -51 -4 -51 10 0 5 5 6 10 3 6 -3 10 -2 10 4 0 13 42 5 51 -11z
m434 -7 c8 -15 -4 -19 -80 -26 -39 -3 -78 -9 -87 -11 -13 -4 -18 0 -18 15 0
18 3 19 25 11 30 -11 75 -10 75 3 0 4 5 5 10 2 6 -3 10 -1 10 4 0 13 57 15 65
2z m-325 -16 c0 -13 -8 -15 -42 -10 -24 4 -45 9 -48 12 -3 3 7 3 23 1 15 -3
30 -1 33 3 9 15 34 10 34 -6z m100 -15 c0 -10 -70 -4 -81 7 -4 4 12 6 36 5 25
-2 45 -7 45 -12z m24 5 c-4 -8 -8 -15 -10 -15 -2 0 -4 7 -4 15 0 8 4 15 10 15
5 0 7 -7 4 -15z"/>
<path d="M1180 2420 c0 -19 3 -21 12 -12 9 9 9 15 0 24 -9 9 -12 7 -12 -12z"/>
<path d="M960 2256 c0 -2 7 -6 15 -10 8 -3 15 -1 15 4 0 6 -7 10 -15 10 -8 0
-15 -2 -15 -4z"/>
<path d="M1447 2219 c7 -7 15 -10 18 -7 3 3 -2 9 -12 12 -14 6 -15 5 -6 -5z"/>
<path d="M1846 2205 c-3 -9 -6 -22 -5 -28 0 -7 5 -1 10 12 5 13 8 26 5 28 -2
2 -6 -3 -10 -12z"/>
<path d="M1728 2169 c9 -15 22 -25 30 -22 9 4 7 9 -8 20 -11 8 -18 18 -16 22
3 4 -1 8 -8 8 -10 0 -10 -6 2 -28z"/>
<path d="M749 2153 c-13 -16 -12 -17 4 -4 9 7 17 15 17 17 0 8 -8 3 -21 -13z"/>
<path d="M1797 2150 c14 -6 21 -15 17 -24 -3 -8 -1 -17 5 -21 7 -4 8 0 4 11
-4 12 -3 15 6 10 9 -6 9 -3 -1 13 -7 12 -22 21 -33 20 -19 0 -18 -1 2 -9z"/>
<path d="M2050 2056 c0 -8 -6 -17 -12 -19 -10 -4 -10 -6 -1 -6 7 -1 17 8 23
19 7 14 7 20 0 20 -5 0 -10 -6 -10 -14z"/>
<path d="M1970 2024 c8 -3 21 -8 29 -10 10 -3 10 -8 2 -17 -8 -10 -7 -14 4
-14 9 0 15 9 15 22 0 16 -7 21 -32 22 -18 1 -26 -1 -18 -3z"/>
<path d="M2055 1947 c-12 -10 -14 -16 -7 -21 7 -4 12 -2 12 4 0 7 7 10 14 7
10 -4 13 -1 9 9 -6 17 -5 17 -28 1z"/>
<path d="M2091 1899 c-2 -24 25 -44 32 -25 4 10 1 13 -8 10 -7 -3 -15 2 -18
13 -4 14 -5 15 -6 2z"/>
<path d="M2155 1820 c-16 -7 -17 -9 -3 -9 9 -1 20 4 23 9 7 11 7 11 -20 0z"/>
<path d="M2150 1791 c0 -11 40 -51 51 -51 3 0 13 8 20 18 13 16 13 16 -5 2
-17 -13 -21 -12 -42 13 -13 16 -24 24 -24 18z"/>
<path d="M420 1759 c0 -5 5 -7 10 -4 6 3 10 1 10 -4 0 -6 5 -11 11 -11 8 0 8
5 -1 15 -14 17 -30 20 -30 4z"/>
<path d="M408 1693 c7 -3 16 -2 19 1 4 3 -2 6 -13 5 -11 0 -14 -3 -6 -6z"/>
<path d="M2236 1632 c-2 -4 -1 -14 4 -22 7 -11 9 -9 7 8 -1 24 -3 26 -11 14z"/>
<path d="M390 1620 c0 -5 5 -10 11 -10 5 0 7 5 4 10 -3 6 -8 10 -11 10 -2 0
-4 -4 -4 -10z"/>
<path d="M2255 1540 c10 -11 20 -20 23 -20 3 0 -3 9 -13 20 -10 11 -20 20 -23
20 -3 0 3 -9 13 -20z"/>
<path d="M2308 1528 c-10 -10 -14 -18 -9 -18 10 0 36 29 30 34 -2 1 -12 -6
-21 -16z"/>
<path d="M332 1486 c7 -8 15 -12 17 -11 5 6 -10 25 -20 25 -5 0 -4 -6 3 -14z"/>
<path d="M2410 1371 c0 -8 -8 -11 -20 -8 -11 3 -18 1 -14 -4 3 -5 11 -9 19 -9
16 0 30 18 21 27 -3 4 -6 1 -6 -6z"/>
<path d="M2340 1360 c-9 -6 -10 -10 -3 -10 6 0 15 5 18 10 8 12 4 12 -15 0z"/>
<path d="M2335 1270 c-16 -7 -17 -9 -3 -9 9 -1 20 4 23 9 7 11 7 11 -20 0z"/>
<path d="M175 1219 c-3 -4 2 -6 10 -5 21 3 28 13 10 13 -9 0 -18 -4 -20 -8z"/>
<path d="M2352 1199 c-9 -14 -19 -18 -30 -14 -14 5 -15 4 -4 -7 10 -10 16 -8
34 10 12 12 20 24 17 26 -3 3 -10 -4 -17 -15z"/>
<path d="M290 1146 c0 -2 8 -10 18 -17 15 -13 16 -12 3 4 -13 16 -21 21 -21
13z"/>
<path d="M2339 1103 c-13 -16 -12 -17 4 -4 16 13 21 21 13 21 -2 0 -10 -8 -17
-17z"/>
<path d="M2324 1019 c-3 -6 -17 -9 -30 -6 -13 2 -21 0 -18 -4 8 -14 40 -10 54
6 7 8 10 15 7 15 -3 0 -9 -5 -13 -11z"/>
<path d="M2375 999 c-4 -6 -14 -8 -22 -5 -8 4 -11 1 -8 -5 4 -6 13 -8 20 -5 7
2 17 0 23 -6 8 -8 9 -5 5 11 -6 24 -9 26 -18 10z"/>
<path d="M217 955 c-5 -32 15 -95 31 -95 6 0 10 -16 10 -36 0 -19 3 -38 6 -41
3 -4 6 5 6 19 0 26 23 43 42 32 5 -3 13 -16 18 -28 7 -16 9 -17 9 -4 1 9 -4
20 -9 23 -6 4 -8 10 -5 15 3 4 -7 7 -22 5 -33 -3 -47 13 -30 35 10 13 10 13
-4 2 -13 -10 -19 -9 -29 3 -7 8 -9 15 -6 15 4 0 2 9 -4 19 -5 11 -6 21 -1 23
4 2 5 12 1 23 -6 17 -8 15 -13 -10z"/>
<path d="M2235 971 c-6 -5 -19 -11 -30 -14 -19 -4 -19 -5 1 -6 12 0 27 6 34
14 14 16 10 20 -5 6z"/>
<path d="M305 959 c-4 -6 -4 -13 -1 -16 3 -4 6 -1 6 5 0 6 8 13 18 15 15 4 15
5 0 6 -9 0 -20 -4 -23 -10z"/>
<path d="M253 935 c-3 -9 -3 -19 1 -22 3 -4 6 2 6 11 0 12 5 16 16 12 8 -3 12
-2 9 4 -9 15 -25 12 -32 -5z"/>
<path d="M2240 941 c0 -6 4 -13 10 -16 6 -3 7 1 4 9 -7 18 -14 21 -14 7z"/>
<path d="M2310 913 c0 -13 56 -44 64 -36 9 9 -19 31 -32 25 -8 -3 -18 1 -23 9
-5 9 -9 10 -9 2z"/>
<path d="M2154 890 c1 -8 10 -16 21 -17 15 -1 15 0 3 3 -9 3 -19 11 -21 17 -2
7 -3 5 -3 -3z"/>
<path d="M346 871 c-4 -5 3 -7 14 -4 23 6 26 13 6 13 -8 0 -17 -4 -20 -9z"/>
<path d="M2218 838 c5 -5 16 -8 23 -6 8 3 3 7 -10 11 -17 4 -21 3 -13 -5z"/>
<path d="M2266 837 c3 -10 9 -15 12 -12 3 3 0 11 -7 18 -10 9 -11 8 -5 -6z"/>
<path d="M2157 790 c7 -27 28 -43 50 -37 14 4 13 5 -5 6 -14 1 -26 10 -32 26
-11 30 -20 33 -13 5z"/>
<path d="M295 791 c-3 -5 -2 -12 3 -15 5 -3 9 1 9 9 0 17 -3 19 -12 6z"/>
<path d="M2270 775 c0 -8 4 -15 10 -15 5 0 7 7 4 15 -4 8 -8 15 -10 15 -2 0
-4 -7 -4 -15z"/>
<path d="M2230 734 c0 -8 5 -12 10 -9 6 4 8 11 5 16 -9 14 -15 11 -15 -7z"/>
<path d="M2077 729 c7 -7 15 -10 18 -7 3 3 -2 9 -12 12 -14 6 -15 5 -6 -5z"/>
<path d="M446 691 c-4 -5 3 -7 14 -4 23 6 26 13 6 13 -8 0 -17 -4 -20 -9z"/>
<path d="M2202 680 c0 -14 2 -19 5 -12 2 6 2 18 0 25 -3 6 -5 1 -5 -13z"/>
<path d="M2128 678 c5 -5 16 -8 23 -6 8 3 3 7 -10 11 -17 4 -21 3 -13 -5z"/>
<path d="M574 635 c-18 -14 -18 -14 4 -8 12 3 22 9 22 14 0 12 -3 11 -26 -6z"/>
<path d="M2060 621 c0 -6 4 -13 10 -16 6 -3 7 1 4 9 -7 18 -14 21 -14 7z"/>
<path d="M2123 612 c-7 -4 -9 -13 -5 -19 6 -9 11 -6 20 7 13 21 6 26 -15 12z"/>
<path d="M1990 563 c0 -6 8 -17 18 -24 16 -13 16 -13 2 6 -8 11 -16 22 -17 24
-2 2 -3 0 -3 -6z"/>
<path d="M690 525 c-7 -9 -11 -17 -9 -20 3 -2 10 5 17 15 14 24 10 26 -8 5z"/>
<path d="M640 480 c-24 -15 -7 -18 20 -3 14 7 18 13 10 13 -8 0 -22 -4 -30
-10z"/>
<path d="M765 469 c-4 -6 -5 -12 -2 -15 2 -3 7 2 10 11 7 17 1 20 -8 4z"/>
<path d="M2007 453 c-4 -3 -7 -11 -7 -17 0 -6 5 -5 12 2 6 6 9 14 7 17 -3 3
-9 2 -12 -2z"/>
<path d="M785 420 c10 -11 20 -20 23 -20 3 0 -3 9 -13 20 -10 11 -20 20 -23
20 -3 0 3 -9 13 -20z"/>
<path d="M854 425 c-3 -8 -4 -20 -1 -27 3 -7 6 -3 6 9 1 12 9 24 19 26 16 4
16 5 -1 6 -10 0 -20 -6 -23 -14z"/>
<path d="M720 415 c-19 -22 -8 -25 13 -3 9 10 13 18 8 18 -5 0 -14 -7 -21 -15z"/>
<path d="M1857 419 c7 -9 10 -18 7 -22 -3 -3 4 -3 17 0 16 5 19 8 9 11 -8 3
-22 10 -30 16 -13 9 -13 9 -3 -5z"/>
<path d="M1667 389 c7 -7 15 -10 18 -7 3 3 -2 9 -12 12 -14 6 -15 5 -6 -5z"/>
<path d="M1114 358 c3 -10 1 -20 -4 -23 -6 -4 -10 -14 -9 -23 0 -14 2 -14 6
-2 3 8 10 18 16 21 6 4 5 14 -3 25 -9 16 -11 16 -6 2z"/>
<path d="M1025 349 c-4 -6 -5 -12 -2 -15 2 -3 7 2 10 11 7 17 1 20 -8 4z"/>
<path d="M910 330 c-24 -15 -7 -18 20 -3 14 7 18 13 10 13 -8 0 -22 -4 -30
-10z"/>
<path d="M1292 311 c2 -8 15 -21 29 -30 19 -11 21 -12 9 0 -8 8 -21 21 -29 29
-11 12 -12 12 -9 1z"/>
<path d="M1502 298 c-14 -14 -16 -44 -3 -52 5 -4 7 3 4 14 -3 11 0 27 7 35 15
18 9 20 -8 3z"/>
<path d="M1420 290 c0 -5 7 -7 15 -4 8 4 15 8 15 10 0 2 -7 4 -15 4 -8 0 -15
-4 -15 -10z"/>
<path d="M1590 291 c0 -6 4 -13 10 -16 6 -3 7 1 4 9 -7 18 -14 21 -14 7z"/>
<path d="M1127 279 c7 -7 15 -10 18 -7 3 3 -2 9 -12 12 -14 6 -15 5 -6 -5z"/>
<path d="M2019 858 c-11 -21 -11 -22 4 -10 9 8 22 10 29 6 10 -6 9 -3 -1 9
-17 22 -18 21 -32 -5z"/>
<path d="M1975 790 c-34 -48 -150 -160 -205 -196 -33 -22 -38 -29 -30 -45 6
-10 15 -21 22 -25 6 -4 4 3 -5 16 -16 23 -16 25 10 41 22 15 30 16 43 6 13
-10 13 -10 2 4 -10 14 -8 19 14 34 24 16 27 16 47 -2 l22 -18 -19 23 c-20 23
-20 23 2 44 18 19 23 20 39 7 16 -13 17 -13 4 4 -12 15 -11 20 4 37 15 16 21
18 34 8 13 -10 14 -10 4 1 -9 11 -8 19 4 37 8 13 21 24 27 24 6 0 12 9 12 20
0 11 -1 20 -2 20 -1 0 -14 -18 -29 -40z"/>
<path d="M1660 529 c-30 -17 -46 -27 -35 -24 11 4 24 7 30 8 5 1 14 6 20 10 5
4 19 14 30 22 32 23 15 17 -45 -16z"/>
<path d="M855 537 c3 -7 15 -13 26 -14 24 -2 23 0 -8 16 -18 9 -22 9 -18 -2z"/>
<path d="M913 505 c0 -7 6 -11 14 -8 7 3 13 6 13 8 0 2 -6 5 -13 8 -8 3 -14
-1 -14 -8z"/>
<path d="M1528 480 c-89 -29 -212 -43 -313 -35 -49 4 -88 5 -85 2 8 -8 120
-20 169 -18 27 1 47 -3 52 -11 7 -10 9 -9 9 5 0 20 55 25 63 5 3 -8 6 -6 6 5
1 11 10 17 29 19 36 2 42 3 75 16 16 7 34 12 42 12 8 0 17 5 20 10 8 13 2 12
-67 -10z"/>
<path d="M980 479 c0 -5 5 -7 10 -4 6 3 10 8 10 11 0 2 -4 4 -10 4 -5 0 -10
-5 -10 -11z"/>
<path d="M1040 460 c0 -5 7 -7 15 -4 8 4 15 8 15 10 0 2 -7 4 -15 4 -8 0 -15
-4 -15 -10z"/>
<path d="M1092 453 c11 -3 15 -11 12 -21 -5 -15 -4 -15 5 -2 16 23 13 30 -11
29 -17 -1 -18 -3 -6 -6z"/>
<path d="M1190 2101 c-8 -6 -17 -8 -20 -6 -3 2 -23 -10 -45 -26 -22 -16 -48
-32 -57 -35 -10 -4 -18 -12 -18 -20 0 -7 -8 -18 -17 -24 -31 -19 58 1 102 22
41 20 105 75 105 90 0 11 -32 10 -50 -1z"/>
<path d="M1282 2087 c1 -14 5 -25 8 -24 3 0 27 -13 54 -31 57 -37 110 -50 131
-32 16 13 36 6 31 -13 -1 -7 -1 -9 1 -4 3 4 14 7 24 7 11 0 34 7 51 16 l32 16
-28 15 c-26 13 -30 13 -50 -6 -30 -28 -39 -26 -31 8 5 24 3 29 -17 33 -22 4
-23 2 -19 -36 l3 -41 -21 27 c-20 25 -82 69 -106 75 -65 16 -65 16 -63 -10z"/>
<path d="M1250 2085 c0 -8 -4 -15 -9 -15 -16 0 -11 -177 5 -191 11 -9 15 -6
23 12 19 53 22 92 10 142 -7 29 -12 55 -11 60 1 4 -2 7 -8 7 -5 0 -10 -7 -10
-15z"/>
<path d="M1078 2083 c-10 -2 -18 -13 -18 -24 0 -20 0 -20 30 1 41 29 38 36
-12 23z"/>
<path d="M1410 2081 c0 -12 29 -35 36 -28 11 10 -5 37 -21 37 -8 0 -15 -4 -15
-9z"/>
<path d="M1008 2063 c-14 -3 -16 -9 -8 -22 13 -25 0 -34 -21 -15 -15 14 -20
14 -46 1 l-28 -15 28 -11 c36 -14 67 -14 67 0 0 6 7 9 15 5 15 -6 35 21 35 48
0 16 -9 18 -42 9z"/>
<path d="M1521 2044 c0 -11 3 -14 6 -6 3 7 2 16 -1 19 -3 4 -6 -2 -5 -13z"/>
<path d="M1201 2036 c-7 -8 -30 -23 -52 -34 l-40 -20 47 -26 c26 -14 48 -25
49 -24 4 5 14 118 11 118 -2 0 -9 -6 -15 -14z"/>
<path d="M1300 1973 c0 -53 1 -55 18 -40 10 9 35 23 56 32 l38 16 -49 24 c-26
14 -51 25 -55 25 -5 0 -8 -25 -8 -57z"/>
<path d="M1597 2001 l-27 -18 49 -31 c27 -16 52 -28 55 -25 14 14 -24 95 -43
92 -3 0 -18 -8 -34 -18z"/>
<path d="M871 1995 c-17 -8 -24 -23 -27 -48 l-3 -35 50 30 c27 17 49 34 49 38
0 17 -47 28 -69 15z"/>
<path d="M928 1946 c-85 -46 -135 -96 -95 -96 40 0 177 86 177 111 0 19 -30
13 -82 -15z"/>
<path d="M1056 1964 c-15 -7 -26 -10 -26 -6 0 4 -6 -2 -12 -13 -18 -30 -21
-110 -8 -166 10 -41 15 -48 26 -38 8 7 12 14 9 17 -3 3 1 12 8 20 10 13 8 14
-13 7 -24 -7 -24 -6 -6 7 17 13 18 24 13 87 -4 43 -2 71 4 71 5 0 12 -6 15
-14 11 -30 164 -93 164 -68 0 17 -55 64 -102 87 -41 20 -50 21 -72 9z"/>
<path d="M1395 1956 c-78 -42 -105 -61 -111 -79 -9 -29 -1 -29 62 -1 55 24
124 77 124 96 0 14 -33 7 -75 -16z"/>
<path d="M1517 1959 c-3 -10 -2 -17 3 -14 4 3 11 -2 14 -10 6 -16 120 -75 144
-75 37 0 -18 58 -88 92 -59 29 -67 30 -73 7z"/>
<path d="M799 1949 c-19 -13 -25 -26 -23 -45 2 -24 1 -25 -15 -10 -17 15 -21
13 -64 -33 -26 -28 -47 -53 -47 -56 0 -3 19 4 42 16 31 16 38 23 27 30 -9 7
-1 8 24 3 22 -4 37 -2 37 4 0 5 8 12 18 14 19 5 47 84 33 92 -3 2 -18 -4 -32
-15z"/>
<path d="M1691 1925 c3 -52 25 -68 39 -29 15 37 12 52 -9 64 -30 16 -32 13
-30 -35z"/>
<path d="M1474 1942 c-6 -4 -11 -45 -12 -99 0 -116 0 -112 -17 -89 -15 20 -15
20 -15 0 0 -12 2 -23 5 -26 9 -8 54 15 60 30 3 8 0 10 -8 6 -9 -6 -9 -5 0 7
17 22 26 84 19 134 -7 45 -12 51 -32 37z"/>
<path d="M1757 1905 c-9 -7 -17 -17 -17 -23 0 -6 -8 -16 -17 -22 -17 -11 -17
-11 0 -6 10 3 29 6 41 6 12 0 30 6 40 13 17 13 17 14 -6 29 -19 13 -27 13 -41
3z"/>
<path d="M975 1901 c-3 -6 -27 -22 -52 -34 l-45 -23 50 -25 50 -25 5 56 c5 58
3 68 -8 51z"/>
<path d="M1417 1890 c-14 -11 -40 -26 -58 -32 -30 -10 -31 -12 -13 -25 10 -8
27 -12 37 -9 10 2 17 -1 17 -10 0 -8 5 -13 12 -11 12 2 43 96 35 104 -2 2 -16
-6 -30 -17z"/>
<path d="M1525 1840 l0 -69 22 24 c12 13 38 29 58 36 35 13 47 29 21 29 -7 0
-30 11 -50 25 -20 14 -40 25 -44 25 -4 0 -7 -31 -7 -70z"/>
<path d="M1071 1835 l0 -65 30 22 c35 26 35 27 7 22 -13 -2 0 4 29 12 l51 16
-56 29 c-32 16 -58 29 -59 29 -1 0 -2 -29 -2 -65z"/>
<path d="M1818 1863 c-10 -3 -18 -8 -18 -13 0 -10 68 -45 75 -38 10 9 -41 55
-57 51z"/>
<path d="M1675 1842 c-5 -5 -25 -14 -44 -21 -42 -14 -120 -71 -121 -88 0 -13
40 -14 50 -2 3 4 28 18 56 32 27 14 56 32 63 41 15 18 11 52 -4 38z"/>
<path d="M1751 1836 c-15 -17 17 -50 79 -81 60 -30 86 -32 86 -5 0 10 -2 17
-4 15 -3 -2 -19 6 -36 19 -54 41 -114 66 -125 52z"/>
<path d="M685 1801 c-39 -21 -74 -49 -86 -68 l-20 -31 45 13 c66 20 97 39 138
83 35 38 35 40 13 40 -13 0 -53 -17 -90 -37z"/>
<path d="M828 1821 c18 -47 98 -89 133 -71 27 15 13 31 -54 61 -65 29 -87 32
-79 10z"/>
<path d="M1217 1829 c-10 -6 -28 -9 -39 -6 -11 3 -17 3 -14 0 3 -3 -14 -18
-37 -33 -51 -33 -86 -70 -67 -70 8 0 24 10 37 22 13 12 23 16 23 10 0 -7 -4
-12 -10 -12 -5 0 -10 -4 -10 -10 0 -6 10 -5 25 2 17 7 21 14 14 19 -13 8 20
32 59 44 12 3 27 15 32 26 12 22 12 22 -13 8z"/>
<path d="M1270 1829 c-13 -9 -12 -10 3 -5 16 5 23 -10 17 -39 -1 -5 1 -7 5 -3
4 3 23 -5 42 -18 20 -13 44 -24 54 -24 9 0 20 -6 22 -12 4 -10 6 -10 6 -1 1 7
-19 21 -43 31 -54 24 -73 48 -30 38 16 -4 37 -15 47 -23 9 -9 20 -13 24 -9 10
10 -33 41 -76 56 -20 6 -40 13 -46 15 -5 3 -17 0 -25 -6z"/>
<path d="M1702 1813 c-14 -25 -10 -162 5 -188 10 -17 12 -14 23 25 13 47 8
137 -8 166 -9 16 -10 16 -20 -3z"/>
<path d="M784 1800 c-5 -5 -7 -45 -3 -97 3 -48 4 -92 2 -96 -3 -4 -19 6 -36
23 -17 16 -55 39 -84 50 -64 24 -60 24 -60 3 0 -23 32 -52 81 -73 66 -28 93
-32 100 -14 3 8 10 13 15 10 10 -7 31 69 31 112 0 74 -19 109 -46 82z"/>
<path d="M1243 1798 c-16 -21 -15 -120 1 -163 8 -22 15 -35 15 -28 1 6 4 19 8
29 4 10 2 15 -4 11 -11 -7 -10 105 2 141 8 24 -6 30 -22 10z"/>
<path d="M1660 1765 c-6 -8 -35 -26 -63 -39 -44 -21 -48 -26 -27 -27 14 -1 30
-3 37 -3 7 -1 25 -14 41 -29 30 -29 53 -37 32 -12 -9 10 -11 33 -7 70 3 30 4
55 3 55 -2 0 -9 -7 -16 -15z"/>
<path d="M1205 1760 c-4 -6 -16 -8 -28 -5 -17 5 -19 4 -7 -4 12 -8 5 -14 -30
-30 -25 -11 -38 -21 -30 -21 8 0 32 -9 53 -20 20 -11 43 -20 49 -20 7 0 -2 8
-19 16 -18 9 -33 20 -33 24 0 10 30 21 40 15 4 -3 10 8 13 23 6 30 3 39 -8 22z"/>
<path d="M1755 1701 l-1 -69 32 28 c18 15 49 33 70 40 l37 13 -48 18 c-27 10
-53 23 -59 29 -23 23 -31 8 -31 -59z"/>
<path d="M694 1730 l-51 -27 59 -25 58 -26 0 54 c0 30 -3 53 -7 53 -5 -1 -31
-14 -59 -29z"/>
<path d="M850 1711 c0 -27 -3 -57 -7 -67 -4 -11 -2 -15 7 -12 7 2 14 12 16 22
3 21 33 56 47 56 6 0 0 -11 -13 -25 -13 -14 -20 -25 -15 -25 4 0 13 7 19 16
10 13 29 21 60 23 7 1 -102 60 -111 61 -2 0 -3 -22 -3 -49z"/>
<path d="M1304 1700 c-1 -33 3 -60 7 -60 10 0 12 13 9 48 -2 24 20 38 46 28
14 -5 14 -9 3 -24 -13 -15 -12 -16 2 -4 9 7 21 12 25 11 34 -6 32 5 -5 21 -23
11 -48 17 -54 13 -5 -3 -7 -1 -4 4 5 8 -12 23 -26 23 -1 0 -2 -27 -3 -60z"/>
<path d="M960 1735 c-11 -13 -10 -14 4 -9 9 3 16 1 16 -6 0 -6 5 -8 10 -5 15
9 12 35 -4 35 -7 0 -19 -7 -26 -15z"/>
<path d="M1460 1704 c0 -6 -19 -15 -43 -21 -46 -13 -145 -92 -116 -93 9 0 19
7 23 15 3 8 14 15 25 15 10 0 22 7 25 16 3 8 10 12 16 9 5 -3 10 -2 10 3 0 14
32 24 43 13 11 -11 -47 -57 -85 -66 -30 -8 -29 -25 2 -25 10 0 21 -6 24 -12 3
-7 3 -3 0 10 -6 24 13 31 33 11 17 -17 32 18 35 81 0 8 5 21 11 28 5 7 7 15 3
19 -3 3 -6 2 -6 -3z m-26 -115 c-3 -5 -10 -7 -15 -3 -5 3 -7 10 -3 15 3 5 10
7 15 3 5 -3 7 -10 3 -15z"/>
<path d="M1517 1696 c-3 -8 -2 -18 4 -21 5 -4 6 -11 3 -17 -4 -6 -2 -8 4 -4 6
3 16 0 24 -7 7 -8 19 -12 26 -9 6 2 12 -3 12 -11 0 -8 7 -18 16 -21 30 -12 36
-6 13 14 -19 15 -21 19 -7 20 9 0 31 -12 49 -27 18 -15 30 -21 27 -13 -2 7
-20 27 -40 43 -30 24 -39 27 -56 18 -11 -6 -29 -8 -39 -4 -15 6 -13 9 12 14
l30 6 -30 8 c-16 4 -33 12 -36 17 -3 5 -9 3 -12 -6z"/>
<path d="M1890 1696 c-19 -7 -47 -19 -61 -27 -36 -19 -102 -79 -96 -86 7 -6
110 32 143 53 20 13 64 75 52 74 -2 -1 -19 -7 -38 -14z"/>
<path d="M972 1685 c-45 -14 -122 -62 -122 -76 0 -4 -8 -9 -17 -12 -17 -4 -17
-4 0 -12 13 -5 26 0 45 17 15 13 40 32 56 42 23 15 30 16 37 5 7 -12 9 -12 9
-1 0 8 10 22 23 33 26 22 25 22 -31 4z"/>
<path d="M1280 1680 c-6 -11 -8 -20 -6 -20 3 0 10 9 16 20 6 11 8 20 6 20 -3
0 -10 -9 -16 -20z"/>
<path d="M557 1660 c-14 -33 -15 -54 -3 -147 6 -39 -2 -48 -26 -26 -22 20 -24
35 -3 27 11 -5 15 1 15 17 -1 56 -17 49 -34 -13 -10 -35 -20 -71 -23 -81 -4
-17 -2 -17 17 -7 18 10 20 14 9 21 -9 7 -5 7 14 3 18 -4 27 -2 27 6 0 7 7 10
15 6 36 -13 52 142 22 200 l-16 29 -14 -35z"/>
<path d="M1066 1673 c-4 -10 -4 -14 0 -10 4 4 13 2 21 -4 9 -9 13 -8 13 0 0
20 29 11 36 -11 6 -20 8 -21 13 -6 4 12 10 15 20 8 13 -7 13 -11 0 -26 -13
-16 -12 -16 9 -5 31 16 16 34 -45 55 -58 20 -59 20 -67 -1z"/>
<path d="M1024 1669 c-14 -17 -18 -145 -7 -177 9 -22 10 -23 24 -6 7 10 9 15
3 11 -23 -13 -23 22 -1 39 l22 16 -22 -7 c-19 -5 -23 -2 -23 15 0 17 4 20 23
15 19 -5 20 -4 5 5 -24 15 -25 55 -2 46 13 -5 14 -3 6 6 -5 7 -11 22 -13 32
-3 16 -6 17 -15 5z"/>
<path d="M1472 1668 c0 -7 -4 -35 -7 -63 -8 -57 10 -144 27 -127 6 6 5 17 -4
31 -11 18 -11 23 1 30 10 7 10 10 1 16 -9 6 -6 13 11 27 23 19 23 19 2 8 -20
-9 -23 -8 -23 8 0 11 6 25 14 31 16 13 10 51 -8 51 -7 0 -13 -6 -14 -12z"/>
<path d="M1922 1663 c-9 -19 -9 -98 1 -173 l7 -45 -49 -18 c-76 -27 -166 -107
-139 -123 6 -4 8 -3 5 3 -3 5 10 15 29 22 18 7 34 17 34 22 0 6 5 7 10 4 6 -3
10 -1 10 5 0 6 4 9 9 6 17 -11 76 41 102 89 34 63 43 120 28 179 -12 48 -32
60 -47 29z"/>
<path d="M980 1625 c-6 -8 -35 -26 -63 -39 l-52 -25 37 -1 c26 0 38 -5 41 -17
3 -11 5 -6 6 10 1 19 7 31 20 34 10 3 21 16 24 29 5 28 4 29 -13 9z"/>
<path d="M1075 1571 c0 -69 13 -85 18 -23 1 18 5 32 10 32 4 0 7 7 7 16 0 8 5
12 11 9 6 -4 8 -14 4 -22 -4 -13 -3 -14 10 -3 9 7 18 10 22 6 4 -3 -2 -13 -13
-22 -11 -9 -13 -13 -4 -10 8 3 23 9 33 12 9 4 17 9 17 13 0 7 -65 33 -76 31
-4 -1 -11 5 -16 14 -17 30 -23 16 -23 -53z"/>
<path d="M1533 1565 c0 -55 2 -64 14 -54 9 8 13 28 11 62 -5 76 -24 70 -25 -8z"/>
<path d="M1843 1600 c-50 -27 -57 -40 -22 -40 10 0 31 -12 48 -26 l31 -26 0
61 c0 34 -1 61 -2 60 -2 0 -26 -13 -55 -29z"/>
<path d="M620 1578 c0 -23 -3 -54 -7 -68 l-6 -25 25 22 c13 13 42 31 63 42
l39 19 -50 23 c-27 13 -52 25 -56 27 -5 2 -8 -16 -8 -40z"/>
<path d="M1587 1579 c4 -15 11 -17 32 -12 36 8 36 8 -3 20 -30 9 -33 9 -29 -8z"/>
<path d="M1987 1554 c-3 -27 -4 -50 -2 -52 1 -2 10 4 19 13 20 20 21 45 2 70
-12 16 -14 13 -19 -31z"/>
<path d="M1435 1559 c-4 -6 -5 -12 -2 -15 2 -3 7 2 10 11 7 17 1 20 -8 4z"/>
<path d="M1654 1551 c-51 -20 -124 -68 -124 -81 0 -15 16 -12 30 5 7 8 16 13
20 10 4 -2 15 4 25 15 10 11 24 20 31 20 7 0 26 11 41 25 32 28 32 28 -23 6z"/>
<path d="M1734 1558 c-5 -7 -2 -9 9 -5 8 3 18 0 20 -7 11 -28 147 -91 147 -68
0 16 -50 48 -111 71 -64 25 -56 24 -65 9z"/>
<path d="M1105 1549 c-4 -6 -5 -12 -2 -15 2 -3 7 2 10 11 7 17 1 20 -8 4z"/>
<path d="M1150 1534 c-48 -27 -90 -62 -90 -75 0 -13 34 3 49 24 7 10 20 16 28
13 9 -4 11 -2 7 6 -5 7 0 9 14 6 15 -4 19 -2 15 8 -3 9 2 14 17 14 12 0 28 7
36 15 26 26 -24 18 -76 -11z"/>
<path d="M1284 1551 c3 -5 16 -7 29 -3 20 5 21 4 8 -11 -16 -21 -11 -21 23 -3
22 11 24 15 11 20 -25 9 -77 7 -71 -3z"/>
<path d="M685 1520 c-27 -16 -60 -38 -72 -49 -24 -20 -30 -41 -12 -41 5 0 8
-4 4 -9 -3 -5 -1 -12 5 -16 6 -4 8 -11 4 -16 -3 -5 -2 -8 3 -7 4 1 27 -8 50
-20 53 -28 63 -28 63 1 0 24 -7 28 -110 69 -25 10 -25 10 15 26 38 15 145 80
145 88 0 14 -52 -1 -95 -26z"/>
<path d="M792 1533 c-2 -10 -5 -54 -7 -98 -2 -44 -4 -82 -4 -84 -1 -3 -6 0
-13 7 -17 17 -28 15 -28 -7 0 -28 21 -37 36 -17 8 12 14 14 19 6 12 -20 36 41
40 100 l3 55 -10 -62 c-13 -79 -29 -82 -22 -5 9 105 9 115 -1 119 -6 2 -12 -5
-13 -14z m-27 -182 c3 -5 2 -12 -3 -15 -5 -3 -9 1 -9 9 0 17 3 19 12 6z"/>
<path d="M846 1536 c3 -7 14 -11 28 -9 14 3 34 -5 54 -22 24 -20 32 -23 32
-11 0 9 -18 25 -40 36 -46 23 -82 27 -74 6z"/>
<path d="M981 1534 c0 -11 3 -14 6 -6 3 7 2 16 -1 19 -3 4 -6 -2 -5 -13z"/>
<path d="M1249 1518 c-16 -38 -17 -136 -2 -162 7 -13 9 -5 9 34 -1 43 3 55 23
71 14 12 18 19 9 19 -8 0 -20 -6 -27 -12 -11 -11 -12 -10 -6 1 9 16 19 81 12
81 -3 0 -11 -15 -18 -32z"/>
<path d="M1366 1519 c-11 -11 -14 -19 -8 -19 6 0 14 5 17 10 12 19 22 10 18
-17 -3 -24 -2 -25 6 -8 21 44 0 66 -33 34z"/>
<path d="M1704 1518 c-6 -20 -7 -100 -2 -158 3 -28 25 -25 30 5 3 13 1 22 -3
19 -5 -3 -7 31 -5 75 3 79 -5 104 -20 59z"/>
<path d="M760 1505 c-6 -7 -34 -25 -62 -39 -29 -14 -45 -27 -37 -30 8 -2 29
-9 47 -15 24 -7 32 -7 32 2 0 7 6 23 13 37 28 54 31 74 7 45z"/>
<path d="M1657 1500 c-14 -11 -45 -29 -69 -40 -34 -15 -38 -20 -20 -21 31 -2
35 -3 51 -13 11 -7 13 -5 8 7 -8 20 22 24 41 5 8 -8 12 -8 12 -1 0 6 -7 14
-16 17 -15 6 -14 9 6 31 30 32 21 42 -13 15z"/>
<path d="M1758 1444 c4 -75 4 -76 23 -55 10 11 19 24 19 29 0 4 21 14 48 21
l47 13 -49 18 c-26 11 -56 26 -65 34 -10 9 -19 16 -22 16 -2 0 -3 -34 -1 -76z"/>
<path d="M1998 1495 c-16 -13 -28 -26 -28 -29 0 -7 54 4 64 14 4 4 4 15 0 23
-8 13 -13 12 -36 -8z"/>
<path d="M1190 1486 c-19 -13 -46 -27 -59 -31 -18 -5 -20 -9 -10 -16 8 -4 20
-3 29 4 13 11 13 10 1 -5 -19 -25 -8 -22 35 7 20 14 31 25 25 25 -8 0 -7 5 3
16 15 14 20 24 13 24 -1 0 -18 -11 -37 -24z"/>
<path d="M1438 1483 c5 -21 7 -23 10 -9 2 10 0 22 -6 28 -6 6 -7 0 -4 -19z"/>
<path d="M853 1437 l1 -64 39 28 c22 16 43 27 47 24 4 -3 12 1 18 8 8 9 0 16
-29 29 -21 9 -37 12 -36 6 1 -6 -4 -13 -11 -15 -9 -4 -13 2 -10 17 2 13 -2 25
-8 27 -8 3 -11 -17 -11 -60z m77 5 c0 -4 -13 -16 -30 -25 -26 -16 -30 -16 -30
-3 0 16 26 35 48 36 6 0 12 -4 12 -8z"/>
<path d="M973 1486 c3 -8 1 -17 -6 -20 -7 -2 1 -5 17 -5 28 -1 29 -1 11 19
-21 24 -29 26 -22 6z"/>
<path d="M1309 1438 c2 -35 6 -55 9 -45 2 12 9 16 20 12 14 -5 14 -4 -1 13 -9
10 -17 24 -17 30 0 15 27 16 35 1 4 -6 14 -8 22 -5 8 3 11 1 8 -4 -8 -12 15
-13 33 -1 10 6 6 10 -15 16 -15 5 -31 8 -35 7 -5 -1 -8 2 -8 8 0 5 -7 7 -15 3
-10 -3 -15 -1 -13 8 2 7 -4 14 -12 16 -12 3 -14 -7 -11 -59z"/>
<path d="M752 1430 c-5 -22 -6 -40 -2 -40 7 0 22 71 16 77 -2 2 -8 -14 -14
-37z"/>
<path d="M565 1440 c-3 -5 -1 -10 4 -10 6 0 11 5 11 10 0 6 -2 10 -4 10 -3 0
-8 -4 -11 -10z"/>
<path d="M1964 1430 c0 -11 7 -20 16 -21 11 0 11 -2 2 -6 -8 -3 4 -13 28 -25
46 -23 55 -20 46 16 -7 26 -24 39 -66 49 -21 5 -26 3 -26 -13z"/>
<path d="M1057 1425 c5 -15 49 -29 63 -20 5 3 11 1 14 -4 3 -5 -1 -11 -9 -15
-19 -7 -19 -23 0 -23 8 0 12 4 9 9 -9 14 20 9 59 -11 52 -26 47 -7 -6 24 -58
33 -137 58 -130 40z"/>
<path d="M1292 1415 c0 -16 2 -22 5 -12 2 9 2 23 0 30 -3 6 -5 -1 -5 -18z"/>
<path d="M976 1420 c-43 -13 -136 -73 -136 -87 0 -18 27 -16 34 2 3 8 12 15
20 15 7 0 16 7 20 15 8 21 26 19 27 -2 1 -12 3 -9 8 7 4 14 16 27 31 30 13 3
25 11 28 18 2 6 2 12 0 11 -1 0 -16 -5 -32 -9z"/>
<path d="M1400 1409 c-46 -20 -110 -75 -110 -93 0 -5 13 2 28 17 15 15 42 32
60 38 18 6 32 15 32 20 0 5 8 9 19 9 10 0 24 7 31 15 18 22 -4 19 -60 -6z"/>
<path d="M1520 1420 c0 -5 6 -10 14 -10 8 0 17 -8 19 -17 4 -17 5 -17 6 0 2
29 31 19 38 -13 7 -39 15 -43 47 -26 20 10 23 16 14 23 -22 17 -44 25 -25 10
18 -15 18 -16 -2 -27 -19 -10 -21 -8 -21 19 0 24 -6 31 -31 40 -40 14 -59 14
-59 1z"/>
<path d="M570 1420 c-1 -3 -4 -14 -7 -25 -3 -11 -6 -57 -8 -103 -3 -72 -1 -84
16 -92 16 -9 20 -6 26 17 14 48 8 146 -10 178 -9 17 -17 28 -17 25z"/>
<path d="M1190 1410 c-8 -5 -10 -10 -5 -10 6 0 17 5 25 10 8 5 11 10 5 10 -5
0 -17 -5 -25 -10z"/>
<path d="M1648 1408 c5 -5 16 -8 23 -6 8 3 3 7 -10 11 -17 4 -21 3 -13 -5z"/>
<path d="M1934 1409 c-11 -18 -15 -182 -4 -199 15 -25 38 -2 45 44 13 82 -17
193 -41 155z"/>
<path d="M1021 1373 c-14 -48 -14 -88 -1 -135 8 -28 15 -36 26 -31 15 5 15 7
0 15 -23 13 -22 52 2 44 10 -4 8 1 -7 13 l-24 19 29 16 c22 13 23 15 7 11 -28
-8 -32 19 -5 34 11 7 12 10 3 11 -7 0 -11 6 -8 15 4 8 2 17 -3 20 -5 3 -14
-11 -19 -32z"/>
<path d="M1482 1385 c-13 -28 -15 -139 -3 -168 6 -17 8 -17 20 -3 11 14 11 16
-3 16 -21 0 -21 26 2 40 16 11 16 11 0 6 -14 -4 -18 0 -18 19 0 14 5 23 13 21
6 -1 9 -1 5 1 -5 3 -8 13 -8 24 0 10 3 19 8 19 4 0 7 11 7 25 0 32 -9 32 -23
0z"/>
<path d="M1080 1385 c7 -9 15 -13 17 -11 7 7 -7 26 -19 26 -6 0 -6 -6 2 -15z"/>
<path d="M517 1360 c-14 -11 -30 -20 -36 -20 -6 0 -11 -13 -11 -28 0 -20 8
-32 29 -45 16 -9 31 -17 34 -17 3 0 7 29 9 65 1 36 2 65 2 65 -1 0 -13 -9 -27
-20z"/>
<path d="M1895 1370 c-4 -7 -30 -23 -58 -36 -41 -18 -47 -24 -31 -29 10 -3 35
-15 55 -25 l37 -19 5 57 c5 61 3 70 -8 52z"/>
<path d="M974 1359 c-3 -6 -30 -22 -58 -35 -50 -23 -50 -24 -18 -24 20 0 31
-4 27 -10 -3 -5 1 -10 10 -10 11 0 15 5 12 14 -3 8 2 21 12 30 19 17 37 10 22
-8 -5 -6 -5 -20 0 -31 l9 -20 -1 20 c-1 11 0 22 1 25 14 39 2 77 -16 49z"/>
<path d="M1430 1355 c-8 -8 -33 -24 -55 -35 -35 -19 -37 -20 -12 -17 22 4 31
0 37 -17 8 -20 9 -19 9 5 1 28 30 64 32 38 0 -13 17 17 18 34 1 12 -14 8 -29
-8z"/>
<path d="M1540 1316 c0 -30 -3 -63 -6 -73 -5 -17 -5 -17 9 -1 8 10 17 14 22
10 4 -4 4 3 1 15 -5 17 -3 21 10 19 10 -2 31 4 48 13 l30 15 -26 7 c-15 4 -41
17 -58 29 l-30 21 0 -55z m61 -3 c2 1 -2 -4 -10 -10 -21 -18 -46 3 -29 24 10
13 13 13 23 -1 7 -9 14 -15 16 -13z"/>
<path d="M1993 1306 l1 -64 33 25 c41 31 42 55 4 82 -16 12 -31 21 -34 21 -2
0 -4 -29 -4 -64z"/>
<path d="M620 1293 l0 -67 28 26 c34 32 70 51 82 43 5 -3 11 -1 15 5 3 5 0 10
-8 10 -8 0 -35 11 -61 25 -26 14 -49 25 -52 25 -2 0 -4 -30 -4 -67z"/>
<path d="M1080 1300 c0 -41 4 -60 11 -58 16 5 17 110 1 116 -9 3 -12 -14 -12
-58z"/>
<path d="M1135 1303 c13 -37 13 -37 -33 -79 l-47 -41 33 1 c17 0 31 5 29 11
-5 13 43 51 94 75 37 17 39 20 14 15 -16 -2 -40 -7 -52 -11 -19 -5 -23 -2 -23
15 0 18 4 21 28 16 15 -3 20 -2 12 1 -8 4 -27 13 -41 20 l-26 13 12 -36z"/>
<path d="M1670 1330 c-9 -6 -10 -10 -3 -10 6 0 15 5 18 10 8 12 4 12 -15 0z"/>
<path d="M743 1281 c-57 -19 -163 -94 -163 -115 0 -13 104 33 129 57 16 15 31
23 33 19 1 -5 18 6 36 25 37 38 35 39 -35 14z"/>
<path d="M840 1276 c0 -10 6 -13 17 -9 11 5 14 3 8 -6 -6 -10 -3 -11 13 -2 21
11 52 6 52 -9 0 -5 -9 -12 -21 -15 -11 -4 -18 -9 -16 -12 3 -2 15 0 26 7 19
10 21 8 21 -16 0 -32 5 -29 14 8 5 23 2 30 -21 41 -16 8 -43 18 -60 22 -26 5
-33 3 -33 -9z"/>
<path d="M1290 1281 c0 -15 18 -23 22 -10 5 14 66 -10 91 -35 15 -16 17 -16
17 -1 0 9 -18 24 -42 35 -46 21 -88 26 -88 11z"/>
<path d="M1600 1258 c-29 -18 -60 -43 -68 -55 -20 -32 2 -30 32 2 28 30 33 31
39 8 3 -13 5 -11 6 6 1 16 6 21 15 18 10 -4 13 -1 9 9 -4 10 2 14 20 14 13 0
30 7 37 15 23 28 -32 17 -90 -17z"/>
<path d="M1714 1277 c-6 -7 -9 -47 -8 -97 4 -107 6 -120 17 -113 5 3 6 28 3
54 -5 39 -4 51 9 55 8 3 15 14 14 23 0 10 -2 11 -6 3 -10 -26 -20 0 -15 43 5
48 3 52 -14 32z"/>
<path d="M1753 1270 c-2 -18 0 -19 13 -5 21 20 30 19 13 -2 -12 -15 -12 -16 4
-10 12 4 17 1 17 -10 0 -9 3 -13 6 -10 4 4 19 -2 33 -13 34 -24 81 -36 81 -21
0 29 -98 91 -142 91 -17 0 -24 -6 -25 -20z"/>
<path d="M1251 1243 c-14 -50 -14 -98 1 -148 8 -30 13 -35 16 -20 2 11 11 25
20 31 11 8 12 13 4 18 -7 4 -12 2 -12 -4 0 -6 -4 -9 -10 -5 -5 3 -6 13 -3 22
4 9 2 14 -3 10 -11 -6 -3 91 9 110 4 6 3 14 -2 18 -6 3 -15 -11 -20 -32z"/>
<path d="M795 1260 c-10 -16 -7 -143 4 -173 16 -43 21 -32 14 33 -5 56 -4 60
18 70 l24 10 -25 -3 c-18 -1 -24 2 -21 13 12 45 12 60 3 60 -6 0 -14 -4 -17
-10z"/>
<path d="M2022 1245 c-16 -13 -32 -22 -34 -19 -3 2 -8 -4 -11 -16 -4 -16 0
-20 21 -20 38 0 51 11 58 48 8 38 4 39 -34 7z"/>
<path d="M487 1254 c-4 -4 -7 -20 -7 -35 0 -22 6 -30 24 -35 14 -3 33 -4 43
-2 15 3 13 9 -17 41 -19 21 -39 35 -43 31z"/>
<path d="M976 1230 c7 -8 14 -24 17 -35 4 -19 5 -19 6 1 0 12 -7 28 -16 35
-16 12 -17 12 -7 -1z"/>
<path d="M1337 1227 c11 -18 12 -36 2 -43 -5 -3 -9 4 -9 15 0 12 -3 21 -7 21
-5 0 -8 -26 -8 -59 l-1 -58 28 20 c33 25 34 27 8 20 -14 -4 -20 0 -20 11 0 8
11 18 25 22 24 6 24 7 8 20 -15 11 -15 13 -2 14 8 0 21 -6 28 -12 10 -9 12 -9
7 -1 -3 6 -20 18 -36 27 -19 9 -28 10 -23 3z"/>
<path d="M1430 1224 c0 -8 5 -12 10 -9 6 4 8 11 5 16 -9 14 -15 11 -15 -7z"/>
<path d="M1633 1206 c-57 -34 -62 -41 -35 -48 26 -6 86 33 90 60 2 12 2 22 0
21 -2 -1 -26 -15 -55 -33z"/>
<path d="M1765 1169 l0 -70 20 24 c11 14 38 30 59 37 l40 13 -50 25 c-27 13
-50 29 -52 33 -10 26 -17 1 -17 -62z m42 -1 c-3 -8 -6 -5 -6 6 -1 11 2 17 5
13 3 -3 4 -12 1 -19z"/>
<path d="M755 1220 c-4 -6 -27 -21 -53 -34 l-47 -24 40 -11 c30 -8 41 -8 47 2
5 8 8 7 8 -4 0 -9 7 -22 15 -29 14 -11 14 -10 5 14 -5 15 -7 42 -4 61 5 35 1
44 -11 25z"/>
<path d="M1213 1219 c-6 -6 -33 -21 -59 -35 -28 -13 -41 -24 -31 -25 26 -2 29
-4 64 -22 18 -9 36 -17 40 -17 4 1 -9 10 -30 21 -40 21 -41 44 -1 36 13 -2 21
0 18 5 -3 5 0 16 7 24 14 17 8 29 -8 13z"/>
<path d="M860 1171 c0 -27 -3 -57 -7 -67 -5 -14 -3 -14 14 3 15 15 19 29 15
48 -5 27 -4 27 24 13 16 -8 38 -13 48 -10 14 3 6 11 -34 33 -29 16 -55 29 -57
29 -1 0 -3 -22 -3 -49z"/>
<path d="M1140 1200 c-8 -5 -10 -10 -5 -10 6 0 17 5 25 10 8 5 11 10 5 10 -5
0 -17 -5 -25 -10z"/>
<path d="M1440 1200 c-12 -8 -11 -10 8 -10 12 0 22 5 22 10 0 13 -11 13 -30 0z"/>
<path d="M1292 1160 c0 -14 2 -19 5 -12 2 6 2 18 0 25 -3 6 -5 1 -5 -13z"/>
<path d="M1387 1166 c-4 -10 0 -12 14 -9 10 3 16 9 13 14 -8 13 -21 11 -27 -5z"/>
<path d="M1921 1174 c0 -6 -13 -14 -28 -17 -41 -8 -143 -78 -143 -98 0 -15 5
-15 55 4 70 25 129 75 122 102 -2 11 -5 15 -6 9z"/>
<path d="M495 1160 c-3 -5 -2 -10 4 -10 5 0 13 5 16 10 3 6 2 10 -4 10 -5 0
-13 -4 -16 -10z"/>
<path d="M523 1148 c-25 -6 -30 -12 -26 -28 7 -25 25 -26 47 -1 25 28 17 39
-21 29z"/>
<path d="M1445 1151 c-43 -11 -107 -45 -129 -70 -25 -28 -15 -36 15 -13 13 11
30 17 37 15 7 -3 10 1 6 11 -4 10 -1 16 9 16 8 0 18 -6 20 -12 3 -7 6 -2 6 11
1 19 5 23 25 19 15 -3 27 2 35 14 6 10 10 18 9 17 -2 -1 -16 -4 -33 -8z"/>
<path d="M1520 1143 c0 -10 6 -13 16 -9 8 3 25 1 36 -5 11 -6 22 -8 26 -5 9 9
-4 17 -42 26 -29 6 -36 5 -36 -7z"/>
<path d="M1938 1138 c-17 -28 -16 -190 1 -196 6 -2 8 -9 4 -15 -4 -7 0 -6 10
1 25 21 40 112 27 161 -6 22 -15 43 -21 47 -8 4 -7 9 2 15 9 5 9 9 3 9 -7 0
-18 -10 -26 -22z"/>
<path d="M934 1127 c-45 -24 -81 -53 -103 -80 -12 -16 -12 -17 5 -11 10 4 31
18 46 30 16 12 37 26 48 29 11 4 18 11 15 16 -4 5 4 9 17 9 13 0 32 7 42 15
19 15 19 15 -5 15 -13 -1 -42 -11 -65 -23z"/>
<path d="M1078 1143 c6 -2 12 -12 12 -21 1 -16 1 -16 11 0 13 24 39 11 40 -21
2 -23 2 -24 6 -3 2 12 10 22 16 23 22 1 -48 28 -73 28 -14 0 -19 -3 -12 -6z"/>
<path d="M1659 1133 c-13 -15 -12 -15 9 -4 23 12 28 21 13 21 -5 0 -15 -7 -22
-17z"/>
<path d="M1020 1087 c-9 -38 -9 -67 -2 -100 5 -25 7 -49 4 -52 -9 -9 -32 17
-25 29 5 6 6 36 3 67 l-5 55 -54 -28 c-39 -20 -49 -30 -37 -34 9 -4 20 -4 23
0 3 3 12 -2 20 -12 11 -14 12 -14 7 -1 -3 9 3 25 13 35 17 17 18 16 23 -27 3
-24 4 -47 3 -51 -2 -4 -24 4 -50 17 -25 14 -54 25 -64 25 -9 0 -19 6 -22 13
-2 6 -6 0 -9 -15 -4 -23 -2 -26 19 -22 26 5 83 -21 83 -37 0 -8 4 -8 13 -1 8
7 16 6 24 -3 10 -11 10 -15 0 -18 -7 -3 -3 -6 8 -6 11 -1 31 6 43 15 22 15 22
17 5 30 -17 13 -17 15 7 35 23 18 23 19 3 9 -20 -9 -23 -8 -23 10 0 17 4 20
23 15 l22 -7 -22 17 c-29 20 -30 39 -2 32 17 -5 18 -3 7 10 -7 9 -12 24 -10
35 2 10 -1 18 -7 18 -5 0 -15 -24 -21 -53z"/>
<path d="M1480 1100 c-12 -43 -10 -161 3 -153 4 2 7 -1 7 -8 0 -10 3 -10 12
-1 9 9 9 15 0 24 -21 21 -15 41 11 35 l22 -6 -23 17 -24 16 24 18 23 19 -22
-6 c-28 -8 -32 19 -5 34 10 7 12 11 4 11 -9 0 -11 7 -7 20 4 11 2 20 -4 20 -6
0 -15 -18 -21 -40z"/>
<path d="M1603 1115 c-18 -20 -16 -33 6 -45 30 -16 36 -12 16 10 -23 25 -10
25 40 0 l40 -21 -39 36 c-44 39 -46 40 -63 20z"/>
<path d="M1183 1115 c4 -4 -1 -17 -10 -28 -18 -19 -17 -20 7 -7 14 7 26 14 28
15 1 1 -6 8 -15 16 -10 7 -15 9 -10 4z"/>
<path d="M956 1093 c-6 -14 -5 -15 5 -6 7 7 10 15 7 18 -3 3 -9 -2 -12 -12z"/>
<path d="M1416 1079 c-21 -16 -45 -29 -53 -29 -24 0 -4 -18 27 -25 17 -4 30
-11 30 -16 0 -6 5 -7 10 -4 6 3 10 -1 10 -9 0 -9 5 -16 10 -16 7 0 7 6 0 19
-7 14 -6 21 3 25 6 4 2 4 -10 2 -12 -2 -29 1 -37 8 -14 9 -13 13 9 23 21 9 25
9 25 -5 0 -26 13 -4 17 28 1 16 2 30 0 29 -1 0 -20 -14 -41 -30z"/>
<path d="M529 1086 c-14 -10 -15 -16 -5 -41 l13 -30 6 39 c8 47 7 48 -14 32z"/>
<path d="M1084 1040 c1 -58 16 -81 30 -44 3 8 2 12 -4 9 -13 -8 -13 1 1 27 7
13 7 18 1 14 -7 -4 -10 4 -9 20 1 15 -3 29 -9 31 -6 2 -10 -18 -10 -57z"/>
<path d="M1897 1092 c-5 -7 -29 -23 -54 -36 l-46 -23 33 -12 c19 -6 42 -19 52
-28 25 -23 30 -14 26 53 -2 35 -6 54 -11 46z"/>
<path d="M1538 1026 c-3 -59 -2 -63 15 -54 14 7 17 19 15 60 -5 77 -26 73 -30
-6z"/>
<path d="M1998 1064 c3 -19 7 -22 13 -12 13 20 11 38 -5 38 -9 0 -12 -8 -8
-26z"/>
<path d="M630 1038 c0 -23 -3 -54 -7 -68 -6 -23 -4 -22 37 13 24 20 50 37 57
37 25 0 12 15 -30 34 -23 11 -45 22 -49 24 -5 2 -8 -16 -8 -40z"/>
<path d="M1127 1069 c7 -9 10 -19 6 -23 -4 -4 1 -4 10 0 10 3 17 7 15 8 -2 1
-12 8 -23 16 -18 14 -19 13 -8 -1z"/>
<path d="M1215 1060 c-3 -5 -2 -10 4 -10 5 0 13 5 16 10 3 6 2 10 -4 10 -5 0
-13 -4 -16 -10z"/>
<path d="M1598 1033 c3 -16 7 -22 9 -15 3 6 17 12 31 12 26 1 26 1 -7 15 -18
8 -34 15 -36 15 -1 0 0 -12 3 -27z"/>
<path d="M1161 1036 c-10 -12 -8 -13 8 -9 12 3 21 9 21 14 0 14 -16 11 -29 -5z"/>
<path d="M777 1024 c-4 -4 -22 -13 -41 -19 -47 -16 -125 -68 -126 -82 0 -19
19 -16 75 12 61 29 109 69 104 84 -3 7 -8 9 -12 5z"/>
<path d="M1184 1014 c-42 -15 -124 -78 -124 -95 0 -18 22 -8 51 23 18 20 29
27 29 18 0 -13 2 -13 9 -1 8 13 12 13 28 0 16 -13 17 -12 5 3 -17 21 -6 41 19
35 11 -3 19 -1 19 4 0 5 6 9 14 9 8 0 18 5 21 10 9 14 -22 11 -71 -6z"/>
<path d="M1292 1019 c3 -8 12 -13 21 -11 12 2 15 -2 10 -15 -5 -15 -3 -16 8
-5 7 6 22 12 34 12 27 1 2 15 -44 25 -26 5 -32 4 -29 -6z"/>
<path d="M1651 1011 c-23 -10 -64 -34 -89 -55 l-45 -37 30 3 c17 1 29 7 27 13
-2 5 23 23 56 38 85 40 101 69 21 38z"/>
<path d="M1763 1014 c0 -16 74 -64 125 -82 26 -9 32 -8 32 3 0 18 -61 59 -116
79 -35 12 -41 12 -41 0z"/>
<path d="M800 976 c-15 -46 -9 -178 8 -184 22 -7 34 49 27 128 -7 88 -18 106
-35 56z"/>
<path d="M1258 988 c-7 -14 -13 -56 -13 -104 l0 -81 -35 30 c-61 51 -160 78
-135 37 5 -8 11 -7 21 1 12 10 13 9 7 -7 -6 -17 -5 -17 10 -5 11 8 17 9 17 3
0 -7 7 -9 17 -5 11 4 14 3 9 -5 -4 -7 -14 -12 -22 -12 -8 0 -14 -5 -14 -11 0
-5 5 -7 10 -4 6 3 10 0 10 -8 0 -7 7 -14 15 -14 12 0 12 3 2 15 -10 13 -8 14
13 7 14 -4 35 -13 46 -20 27 -17 67 -8 60 12 -15 38 -17 63 -6 82 6 12 16 18
22 15 7 -4 8 -3 4 4 -4 6 -13 9 -21 5 -18 -6 -19 3 -4 46 14 39 6 51 -13 19z"/>
<path d="M1705 955 c-3 -31 -3 -75 1 -98 4 -23 7 -48 5 -54 -3 -22 27 -3 33
20 7 27 6 112 -3 151 -11 50 -28 41 -36 -19z"/>
<path d="M1372 973 c-16 -17 -29 -22 -44 -17 -17 5 -20 3 -15 -11 4 -9 7 -34
7 -56 0 -29 3 -37 14 -33 11 4 13 12 6 30 -11 27 -1 31 31 14 13 -7 25 -8 37
-1 15 9 14 11 -8 19 -14 5 -28 8 -32 5 -5 -2 -8 1 -8 7 0 6 -6 8 -12 5 -18 -9
23 24 43 35 13 8 15 4 12 -18 -1 -15 0 -20 3 -12 4 8 11 20 16 27 6 8 3 15 -9
20 -13 7 -24 3 -41 -14z"/>
<path d="M1684 970 c-5 -5 -33 -22 -62 -38 -49 -27 -52 -30 -30 -37 13 -4 28
-7 34 -6 6 1 19 -8 29 -19 26 -29 31 -25 27 24 -2 24 1 53 7 65 13 23 11 27
-5 11z"/>
<path d="M1768 918 c2 -35 6 -65 8 -67 2 -2 12 3 22 12 9 9 37 25 60 35 43 19
43 19 15 25 -15 3 -45 17 -66 31 -21 14 -39 26 -41 26 -1 0 0 -28 2 -62z"/>
<path d="M765 960 c-4 -7 -30 -23 -58 -35 l-50 -24 39 -16 c21 -9 46 -23 55
-31 15 -14 17 -10 21 48 6 67 4 76 -7 58z"/>
<path d="M860 898 c0 -60 0 -61 20 -43 11 10 20 25 20 33 0 11 3 12 14 3 11
-9 15 -8 20 6 6 14 9 15 15 4 5 -8 11 -9 15 -3 3 6 -8 15 -24 21 -17 5 -30 7
-30 3 0 -3 -7 4 -16 16 -25 36 -34 26 -34 -40z"/>
<path d="M1200 946 c-6 -8 -27 -20 -46 -26 -32 -11 -34 -13 -17 -25 15 -11 23
-10 53 6 20 12 36 29 37 40 2 23 -10 25 -27 5z"/>
<path d="M1452 940 c0 -14 2 -19 5 -12 2 6 2 18 0 25 -3 6 -5 1 -5 -13z"/>
<path d="M1875 889 c-45 -17 -135 -86 -135 -104 0 -14 75 7 118 31 42 25 77
65 70 83 -1 5 -26 1 -53 -10z"/>
<path d="M968 880 c-87 -33 -162 -100 -113 -100 24 0 95 39 102 55 3 8 9 12
15 9 11 -7 51 32 46 45 -2 5 -24 1 -50 -9z"/>
<path d="M1426 884 c-60 -22 -126 -67 -126 -86 0 -23 2 -23 47 7 39 25 44 29
78 55 14 11 17 11 11 1 -6 -8 0 -7 18 4 14 9 23 21 20 26 -3 5 -6 9 -7 8 -1 0
-19 -7 -41 -15z"/>
<path d="M1525 890 c-3 -5 4 -15 15 -23 11 -7 17 -17 12 -22 -4 -4 1 -5 11 -2
9 4 17 2 17 -4 0 -12 109 -64 116 -56 11 10 -16 45 -49 66 -47 29 -115 52
-122 41z"/>
<path d="M1210 870 c-9 -6 -10 -10 -3 -10 6 0 15 5 18 10 8 12 4 12 -15 0z"/>
<path d="M1023 858 c-6 -7 -9 -44 -7 -83 2 -81 6 -101 21 -116 18 -18 38 67
25 108 -6 18 -6 33 -1 33 4 0 6 7 3 15 -4 8 -11 12 -16 9 -6 -4 -6 1 1 13 15
30 -6 46 -26 21z"/>
<path d="M1482 853 c-7 -56 -7 -185 1 -190 20 -12 32 22 34 93 1 41 -1 72 -6
70 -4 -3 -6 6 -3 19 3 17 0 25 -10 25 -7 0 -15 -8 -16 -17z"/>
<path d="M1094 834 c-9 -4 -8 -111 1 -122 2 -2 14 8 28 22 16 15 21 27 14 30
-7 2 5 2 26 -1 51 -8 46 2 -14 28 -33 15 -48 27 -45 35 3 8 4 14 3 13 -1 0 -7
-3 -13 -5z"/>
<path d="M1440 820 c-28 -22 -45 -26 -34 -8 4 7 3 8 -5 4 -6 -4 -9 -11 -6 -15
2 -5 -8 -14 -23 -21 l-27 -13 27 -6 c15 -3 38 -16 52 -28 l26 -23 0 30 c0 17
-5 30 -12 30 -6 0 -3 7 8 15 10 8 15 15 11 15 -4 0 -3 9 3 20 13 25 11 25 -20
0z"/>
<path d="M984 819 c-3 -6 -27 -20 -53 -32 l-46 -20 41 -18 c23 -9 45 -22 48
-28 15 -23 21 -9 21 49 1 64 0 66 -11 49z"/>
<path d="M1540 776 c0 -30 -3 -63 -7 -73 -5 -14 1 -12 23 8 16 15 44 35 63 44
l35 17 -39 19 c-22 11 -44 24 -49 29 -20 20 -26 9 -26 -44z"/>
<path d="M1825 785 c-26 -12 -28 -14 -12 -21 13 -4 26 0 40 15 24 24 16 26
-28 6z"/>
<path d="M680 781 c0 -16 30 -33 47 -26 17 6 17 7 -1 21 -22 16 -46 19 -46 5z"/>
<path d="M1230 763 c0 -6 -12 -13 -27 -16 -16 -3 -44 -17 -63 -31 -19 -14 -42
-29 -52 -32 -9 -3 -18 -15 -21 -26 -5 -17 -2 -18 26 -13 72 15 172 94 149 117
-8 8 -12 8 -12 1z"/>
<path d="M1310 765 c-6 -28 -7 -54 -1 -52 3 1 22 -8 42 -21 47 -29 117 -53
124 -43 12 21 -98 101 -139 101 -8 0 -17 6 -19 13 -3 6 -6 8 -7 2z"/>
<path d="M1635 740 c-62 -29 -115 -71 -115 -90 0 -26 130 32 171 76 37 39 11
46 -56 14z"/>
<path d="M1760 749 c-7 -11 -9 -23 -6 -27 3 -3 6 1 6 9 0 12 2 12 9 0 10 -15
41 -8 41 8 0 6 -9 15 -20 21 -15 8 -21 6 -30 -11z"/>
<path d="M846 752 c-3 -3 -6 -14 -6 -25 0 -11 3 -18 6 -15 3 4 21 -4 40 -17
41 -28 122 -60 130 -52 11 11 -26 54 -66 76 -46 26 -96 42 -104 33z"/>
<path d="M1715 740 c-10 -16 -18 -80 -10 -80 18 0 45 23 45 38 0 28 -25 58
-35 42z"/>
<path d="M1258 723 c-12 -14 -15 -38 -14 -103 1 -72 4 -85 19 -88 27 -5 40 43
33 123 -7 79 -16 93 -38 68z"/>
<path d="M1660 680 c-14 -11 -40 -25 -59 -31 l-34 -12 24 -13 c33 -19 44 -17
74 9 18 15 26 30 23 44 -3 22 -3 22 -28 3z"/>
<path d="M867 683 c-17 -17 -6 -53 21 -67 24 -12 32 -12 62 1 l35 15 -41 16
c-23 10 -48 23 -56 29 -8 7 -18 10 -21 6z"/>
<path d="M1172 660 l-52 -29 47 -22 c27 -13 50 -24 53 -26 3 -2 6 22 6 52 0
30 0 55 -1 54 0 0 -24 -14 -53 -29z"/>
<path d="M1315 625 l-1 -65 21 20 c11 10 37 26 58 35 l38 16 -57 29 c-31 17
-57 30 -58 30 0 0 -1 -29 -1 -65z"/>
<path d="M1070 615 c-9 -11 -9 -15 -1 -15 7 0 9 -5 5 -12 -4 -7 -4 -10 0 -6 4
3 24 -5 43 -18 20 -13 40 -24 45 -24 5 0 6 -4 3 -10 -3 -5 0 -7 8 -4 7 2 25 0
40 -5 75 -29 0 56 -80 90 -53 23 -48 22 -63 4z"/>
<path d="M1426 614 c-22 -8 -55 -26 -74 -42 -20 -15 -40 -30 -45 -33 -5 -4 -7
-12 -3 -17 13 -22 145 49 166 89 12 22 8 22 -44 3z"/>
<path d="M1513 618 c-4 -7 -1 -8 8 -3 8 5 11 4 6 -1 -5 -5 -16 -9 -25 -9 -11
0 -18 -10 -20 -29 -3 -23 0 -28 13 -22 9 3 19 6 21 6 2 0 4 6 4 14 0 8 4 18
10 21 5 3 7 0 4 -9 -5 -13 0 -14 27 -6 49 14 56 27 17 36 -54 13 -58 13 -65 2z"/>
<path d="M1435 556 l-30 -24 27 5 c15 3 28 13 31 24 6 23 8 24 -28 -5z"/>
<path d="M1760 269 c0 -5 5 -7 10 -4 6 3 10 8 10 11 0 2 -4 4 -10 4 -5 0 -10
-5 -10 -11z"/>
<path d="M1085 180 c-3 -5 -1 -10 4 -10 6 0 11 5 11 10 0 6 -2 10 -4 10 -3 0
-8 -4 -11 -10z"/>
<path d="M1358 163 c7 -3 16 -2 19 1 4 3 -2 6 -13 5 -11 0 -14 -3 -6 -6z"/>
</g>
</svg>
